<svg width="109" height="24" viewBox="0 0 109 24" fill="none" xmlns="http://www.w3.org/2000/svg">
<path d="M3.84 14.8V12.68H9.76C10.4667 12.68 11.0267 12.4933 11.44 12.12C11.8533 11.7333 12.06 11.2 12.06 10.52C12.06 9.81333 11.8533 9.27333 11.44 8.9C11.0267 8.52667 10.4667 8.34 9.76 8.34H4.16V19H1.5V6.06H9.52C10.24 6.06 10.9133 6.14667 11.54 6.32C12.18 6.49333 12.7333 6.76 13.2 7.12C13.68 7.48 14.0533 7.94 14.32 8.5C14.5867 9.06 14.72 9.73333 14.72 10.52C14.72 11.2933 14.5867 11.9533 14.32 12.5C14.0533 13.0467 13.68 13.4933 13.2 13.84C12.7333 14.1733 12.18 14.42 11.54 14.58C10.9133 14.7267 10.24 14.8 9.52 14.8H3.84ZM21.3916 19.22C20.4049 19.22 19.5049 19.0067 18.6916 18.58C17.8916 18.14 17.2516 17.5333 16.7716 16.76C16.3049 15.9733 16.0716 15.0667 16.0716 14.04C16.0716 12.9867 16.3116 12.0733 16.7916 11.3C17.2716 10.5267 17.9182 9.92667 18.7316 9.5C19.5582 9.06 20.4916 8.84 21.5316 8.84C22.6782 8.84 23.5982 9.07333 24.2916 9.54C24.9982 9.99333 25.5116 10.6133 25.8316 11.4C26.1516 12.1867 26.3116 13.0667 26.3116 14.04C26.3116 14.6267 26.2182 15.2267 26.0316 15.84C25.8449 16.44 25.5582 17 25.1716 17.52C24.7849 18.0267 24.2782 18.44 23.6516 18.76C23.0249 19.0667 22.2716 19.22 21.3916 19.22ZM22.2316 17.22C23.0182 17.22 23.6982 17.0867 24.2716 16.82C24.8449 16.5533 25.2849 16.18 25.5916 15.7C25.8982 15.22 26.0516 14.6667 26.0516 14.04C26.0516 13.36 25.8916 12.7867 25.5716 12.32C25.2649 11.84 24.8249 11.48 24.2516 11.24C23.6916 10.9867 23.0182 10.86 22.2316 10.86C21.1249 10.86 20.2649 11.1533 19.6516 11.74C19.0382 12.3133 18.7316 13.08 18.7316 14.04C18.7316 14.68 18.8782 15.24 19.1716 15.72C19.4649 16.1867 19.8716 16.5533 20.3916 16.82C20.9249 17.0867 21.5382 17.22 22.2316 17.22ZM26.0516 9.06H28.6516V19H26.2316C26.2316 19 26.2116 18.8733 26.1716 18.62C26.1449 18.3533 26.1182 18.02 26.0916 17.62C26.0649 17.22 26.0516 16.8267 26.0516 16.44V9.06ZM30.3047 9.06H38.0247V11.08H30.3047V9.06ZM32.8647 6.34H35.4647V19H32.8647V6.34ZM42.6566 4.7V6.98H39.6366V4.7H42.6566ZM39.8366 9.06H42.4366V19H39.8366V9.06ZM45.0281 9.06H47.6281V19H45.0281V9.06ZM52.2481 8.84C52.8615 8.84 53.4281 8.92 53.9481 9.08C54.4681 9.24 54.9215 9.48667 55.3081 9.82C55.6948 10.1533 55.9948 10.58 56.2081 11.1C56.4215 11.6067 56.5281 12.2133 56.5281 12.92V19H53.9281V13.38C53.9281 12.54 53.7215 11.9267 53.3081 11.54C52.9081 11.14 52.2481 10.94 51.3281 10.94C50.6348 10.94 50.0081 11.0733 49.4481 11.34C48.8881 11.6067 48.4348 11.9467 48.0881 12.36C47.7415 12.76 47.5415 13.18 47.4881 13.62L47.4681 12.6C47.5348 12.1333 47.6881 11.68 47.9281 11.24C48.1681 10.8 48.4881 10.4 48.8881 10.04C49.3015 9.66667 49.7881 9.37333 50.3481 9.16C50.9081 8.94667 51.5415 8.84 52.2481 8.84ZM58.4953 15.7H60.8953C61.042 16.1533 61.342 16.5267 61.7953 16.82C62.262 17.1 62.8686 17.24 63.6153 17.24C64.122 17.24 64.5153 17.1933 64.7953 17.1C65.0753 17.0067 65.2686 16.8733 65.3753 16.7C65.482 16.5133 65.5353 16.3067 65.5353 16.08C65.5353 15.8 65.4486 15.5867 65.2753 15.44C65.102 15.28 64.8353 15.1533 64.4753 15.06C64.1153 14.9667 63.6553 14.88 63.0953 14.8C62.5353 14.7067 61.9953 14.5933 61.4753 14.46C60.9553 14.3267 60.4953 14.1533 60.0953 13.94C59.6953 13.7133 59.3753 13.4333 59.1353 13.1C58.9086 12.7533 58.7953 12.3333 58.7953 11.84C58.7953 11.36 58.9086 10.9333 59.1353 10.56C59.3753 10.1867 59.702 9.87333 60.1153 9.62C60.542 9.36667 61.0353 9.17333 61.5953 9.04C62.1686 8.90667 62.782 8.84 63.4353 8.84C64.422 8.84 65.242 8.98667 65.8953 9.28C66.5486 9.56 67.0353 9.96 67.3553 10.48C67.6886 10.9867 67.8553 11.5733 67.8553 12.24H65.5553C65.4486 11.7467 65.2353 11.3933 64.9153 11.18C64.5953 10.9533 64.102 10.84 63.4353 10.84C62.782 10.84 62.2886 10.94 61.9553 11.14C61.622 11.34 61.4553 11.6133 61.4553 11.96C61.4553 12.24 61.5553 12.46 61.7553 12.62C61.9686 12.7667 62.2753 12.8867 62.6753 12.98C63.0886 13.0733 63.602 13.1733 64.2153 13.28C64.7353 13.3867 65.2286 13.5067 65.6953 13.64C66.1753 13.7733 66.602 13.9467 66.9753 14.16C67.3486 14.36 67.642 14.6333 67.8553 14.98C68.082 15.3133 68.1953 15.74 68.1953 16.26C68.1953 16.9 68.0086 17.44 67.6353 17.88C67.2753 18.32 66.7553 18.66 66.0753 18.9C65.3953 19.1267 64.582 19.24 63.6353 19.24C62.7953 19.24 62.0686 19.1533 61.4553 18.98C60.8553 18.7933 60.3553 18.56 59.9553 18.28C59.5553 17.9867 59.242 17.68 59.0153 17.36C58.802 17.0267 58.6553 16.7133 58.5753 16.42C58.4953 16.1267 58.4686 15.8867 58.4953 15.7Z" fill="black"/>
<path d="M100.062 6.5345C100.384 5.66389 101.616 5.66389 101.938 6.53451L103.001 9.40803C103.102 9.68175 103.318 9.89756 103.592 9.99885L106.465 11.0621C107.336 11.3843 107.336 12.6157 106.465 12.9379L103.592 14.0012C103.318 14.1024 103.102 14.3182 103.001 14.592L101.938 17.4655C101.616 18.3361 100.384 18.3361 100.062 17.4655L98.9988 14.592C98.8976 14.3182 98.6818 14.1024 98.408 14.0012L95.5345 12.9379C94.6639 12.6157 94.6639 11.3843 95.5345 11.0621L98.408 9.99885C98.6818 9.89756 98.8976 9.68175 98.9988 9.40803L100.062 6.5345Z" fill="black"/>
</svg>
