<svg width="31" height="52" viewBox="0 0 31 52" fill="none" xmlns="http://www.w3.org/2000/svg">
<path d="M15.8983 0.495148C16.3567 0.171644 16.9045 -0.00139236 17.4657 5.72205e-06C18.0269 0.00140381 18.5737 0.177166 19.0305 0.502949C19.4936 0.840937 19.8448 1.30892 20.0373 1.8497L21.2002 5.41936C21.4986 6.3141 22.0011 7.12724 22.668 7.79458C23.3348 8.46192 24.1478 8.96519 25.0427 9.26462L28.6615 10.4346C29.1965 10.6282 29.6572 10.9846 29.9788 11.4538C30.3004 11.9229 30.4666 12.481 30.4539 13.0496C30.4413 13.6181 30.2505 14.1683 29.9083 14.6227C29.5662 15.0771 29.0901 15.4127 28.547 15.5824L24.9699 16.7471C24.0741 17.045 23.2599 17.547 22.5917 18.2135C21.9234 18.8799 21.4195 19.6926 21.1196 20.5872L19.9437 24.1959C19.7543 24.7275 19.4039 25.187 18.9411 25.5103C18.4783 25.8336 17.9262 26.0048 17.3615 25.9999C16.7969 25.995 16.2478 25.8144 15.7906 25.4832C15.3335 25.1519 14.991 24.6865 14.8108 24.1517L13.6219 20.5118C13.3235 19.6412 12.8313 18.8496 12.1824 18.1966C11.5335 17.5436 10.7448 17.0462 9.8757 16.7419L6.25955 15.5798C5.72778 15.3902 5.26829 15.0398 4.94486 14.5773C4.62142 14.1148 4.4501 13.5631 4.45468 12.9989C4.45926 12.4347 4.6395 11.8859 4.97039 11.4287C5.30128 10.9715 5.7664 10.6286 6.30118 10.4476L9.8757 9.29062C10.776 8.99204 11.5937 8.48645 12.2628 7.81453C12.932 7.14261 13.4341 6.32312 13.7286 5.42196L14.9045 1.8055C15.0918 1.27512 15.4404 0.817535 15.8983 0.495148Z" fill="#9547A5"/>
<path d="M5.74623 38.7938C5.97642 38.6314 6.25147 38.5445 6.53326 38.5452C6.81506 38.5459 7.08966 38.6341 7.31904 38.7977C7.55156 38.9674 7.72792 39.2024 7.82458 39.474L8.40851 41.2664C8.55835 41.7157 8.81066 42.124 9.14551 42.4591C9.48036 42.7942 9.88858 43.0469 10.3379 43.1972L12.155 43.7847C12.4237 43.8819 12.655 44.0609 12.8165 44.2965C12.978 44.532 13.0614 44.8123 13.0551 45.0978C13.0487 45.3832 12.9529 45.6595 12.7811 45.8877C12.6093 46.1158 12.3703 46.2844 12.0975 46.3696L10.3014 46.9544C9.85156 47.104 9.44274 47.3561 9.1072 47.6907C8.77165 48.0254 8.51859 48.4334 8.36801 48.8826L7.77756 50.6947C7.68248 50.9616 7.50651 51.1923 7.27412 51.3547C7.04174 51.517 6.7645 51.603 6.48097 51.6005C6.19744 51.5981 5.92172 51.5074 5.69217 51.3411C5.46262 51.1747 5.29065 50.941 5.20019 50.6725L4.6032 48.8448C4.45334 48.4076 4.20619 48.0101 3.88036 47.6822C3.55452 47.3544 3.1585 47.1046 2.72211 46.9518L0.906327 46.3683C0.63931 46.2731 0.408583 46.0971 0.246178 45.8649C0.0837725 45.6326 -0.00225299 45.3556 4.48626e-05 45.0723C0.00234271 44.789 0.0928497 44.5134 0.259001 44.2839C0.425151 44.0543 0.658702 43.8821 0.927228 43.7912L2.72211 43.2103C3.17419 43.0604 3.58475 42.8065 3.92077 42.4691C4.25678 42.1317 4.50888 41.7202 4.65676 41.2677L5.24722 39.4518C5.34127 39.1855 5.51632 38.9557 5.74623 38.7938Z" fill="#9547A5"/>
</svg>
