<svg width="56" height="24" viewBox="0 0 56 24" fill="none" xmlns="http://www.w3.org/2000/svg">
<path d="M42.5661 0.442026C42.9756 0.15309 43.4648 -0.00145912 43.966 -0.000209808C44.4673 0.0010376 44.9557 0.15802 45.3637 0.448994C45.7773 0.750866 46.091 1.16884 46.2629 1.65184L47.3016 4.84009C47.5681 5.63922 48.0169 6.36548 48.6125 6.96151C49.2081 7.55755 49.9342 8.00704 50.7335 8.27448L53.9656 9.31942C54.4434 9.49232 54.855 9.81071 55.1422 10.2297C55.4294 10.6487 55.5778 11.1472 55.5665 11.655C55.5552 12.1628 55.3848 12.6542 55.0792 13.06C54.7737 13.4659 54.3484 13.7657 53.8633 13.9172L50.6684 14.9575C49.8684 15.2235 49.1412 15.6719 48.5443 16.2672C47.9475 16.8624 47.4974 17.5882 47.2295 18.3872L46.1793 21.6103C46.0102 22.0852 45.6972 22.4955 45.2838 22.7843C44.8705 23.0731 44.3773 23.2259 43.873 23.2216C43.3687 23.2172 42.8783 23.0559 42.47 22.7601C42.0617 22.4642 41.7558 22.0485 41.5949 21.5708L40.533 18.3199C40.2665 17.5423 39.8268 16.8353 39.2473 16.2521C38.6677 15.6688 37.9633 15.2246 37.1871 14.9528L33.9573 13.9149C33.4824 13.7455 33.072 13.4326 32.7831 13.0195C32.4942 12.6064 32.3412 12.1137 32.3453 11.6097C32.3494 11.1058 32.5104 10.6156 32.8059 10.2073C33.1014 9.79894 33.5169 9.49269 33.9945 9.33103L37.1871 8.2977C37.9912 8.03102 38.7215 7.57946 39.3192 6.97933C39.9168 6.37921 40.3652 5.64728 40.6283 4.84241L41.6785 1.61237C41.8458 1.13866 42.1572 0.729967 42.5661 0.442026Z" fill="#9547A5"/>
<path d="M4.95145 12.8689C5.14981 12.7289 5.3868 12.654 5.62962 12.6546C5.87244 12.6552 6.10906 12.7313 6.30672 12.8722C6.50708 13.0185 6.65904 13.221 6.74234 13.455L7.2455 14.9995C7.37462 15.3866 7.59203 15.7384 7.88056 16.0272C8.1691 16.3159 8.52086 16.5337 8.90806 16.6632L10.4738 17.1695C10.7053 17.2532 10.9047 17.4075 11.0438 17.6104C11.183 17.8134 11.2549 18.0549 11.2494 18.3009C11.2439 18.5469 11.1613 18.785 11.0133 18.9816C10.8653 19.1782 10.6593 19.3234 10.4243 19.3968L8.87654 19.9008C8.48896 20.0297 8.13668 20.2469 7.84755 20.5352C7.55842 20.8236 7.34036 21.1752 7.2106 21.5623L6.70182 23.1237C6.61989 23.3537 6.46826 23.5525 6.26802 23.6924C6.06777 23.8323 5.82888 23.9064 5.58456 23.9043C5.34025 23.9021 5.10267 23.824 4.90487 23.6807C4.70707 23.5373 4.55888 23.336 4.48094 23.1046L3.96652 21.5297C3.83738 21.153 3.62442 20.8105 3.34365 20.5279C3.06288 20.2454 2.72164 20.0302 2.3456 19.8985L0.78097 19.3957C0.550885 19.3136 0.352071 19.162 0.212128 18.9619C0.0721856 18.7618 -0.00194137 18.5231 3.86575e-05 18.279C0.00201868 18.0348 0.0800074 17.7974 0.223177 17.5996C0.366347 17.4018 0.567595 17.2534 0.79898 17.1751L2.3456 16.6745C2.73516 16.5453 3.08893 16.3265 3.37847 16.0358C3.66801 15.7451 3.88524 15.3905 4.01267 15.0006L4.52146 13.4358C4.6025 13.2063 4.75334 13.0084 4.95145 12.8689Z" fill="#9547A5"/>
</svg>
