<svg width="126" height="173" viewBox="0 0 126 173" fill="none" xmlns="http://www.w3.org/2000/svg">
<path d="M10.2258 14.072C10.2258 14.6373 10.0818 15.144 9.79381 15.592C9.50581 16.0293 9.11648 16.376 8.62581 16.632C8.14581 16.8773 7.61781 17 7.04181 17H1.68181V5.64H7.15381C7.68715 5.64 8.14581 5.784 8.52981 6.072C8.92448 6.34933 9.22315 6.712 9.42581 7.16C9.63915 7.59733 9.74581 8.056 9.74581 8.536C9.74581 9.10133 9.60181 9.624 9.31381 10.104C9.02581 10.584 8.62581 10.9413 8.11381 11.176C8.76448 11.368 9.27648 11.7253 9.64981 12.248C10.0338 12.7707 10.2258 13.3787 10.2258 14.072ZM9.10581 13.88C9.10581 13.496 9.02048 13.144 8.84981 12.824C8.67915 12.4933 8.44448 12.2267 8.14581 12.024C7.85781 11.8213 7.52715 11.72 7.15381 11.72H2.80181V16.024H7.04181C7.42581 16.024 7.77248 15.9227 8.08181 15.72C8.39115 15.5173 8.63648 15.256 8.81781 14.936C9.00981 14.6053 9.10581 14.2533 9.10581 13.88ZM2.80181 6.616V10.808H6.70581C7.07915 10.808 7.40981 10.712 7.69781 10.52C7.98581 10.3173 8.21515 10.056 8.38581 9.736C8.55648 9.416 8.64181 9.07467 8.64181 8.712C8.64181 8.328 8.56181 7.98133 8.40181 7.672C8.24181 7.352 8.02315 7.096 7.74581 6.904C7.46848 6.712 7.15381 6.616 6.80181 6.616H2.80181ZM16.2741 9.624C15.5487 9.64533 14.9087 9.848 14.3541 10.232C13.8101 10.616 13.4261 11.144 13.2021 11.816V17H12.1141V8.664H13.1381V10.664C13.4261 10.0773 13.8047 9.60267 14.2741 9.24C14.7541 8.87733 15.2607 8.67467 15.7941 8.632C15.9007 8.62133 15.9914 8.616 16.0661 8.616C16.1514 8.616 16.2207 8.62133 16.2741 8.632V9.624ZM21.0098 17.16C20.4125 17.16 19.8578 17.048 19.3458 16.824C18.8445 16.5893 18.4071 16.2747 18.0338 15.88C17.6711 15.4747 17.3885 15.016 17.1858 14.504C16.9831 13.9813 16.8818 13.432 16.8818 12.856C16.8818 12.2587 16.9831 11.704 17.1858 11.192C17.3885 10.6693 17.6765 10.2107 18.0498 9.816C18.4231 9.41067 18.8605 9.096 19.3618 8.872C19.8738 8.63733 20.4285 8.52 21.0258 8.52C21.6231 8.52 22.1725 8.63733 22.6738 8.872C23.1751 9.096 23.6125 9.41067 23.9858 9.816C24.3591 10.2107 24.6471 10.6693 24.8498 11.192C25.0525 11.704 25.1538 12.2587 25.1538 12.856C25.1538 13.432 25.0525 13.9813 24.8498 14.504C24.6471 15.016 24.3591 15.4747 23.9858 15.88C23.6231 16.2747 23.1858 16.5893 22.6738 16.824C22.1725 17.048 21.6178 17.16 21.0098 17.16ZM17.9858 12.872C17.9858 13.4907 18.1191 14.056 18.3858 14.568C18.6631 15.0693 19.0311 15.4693 19.4898 15.768C19.9485 16.056 20.4551 16.2 21.0098 16.2C21.5645 16.2 22.0711 16.0507 22.5298 15.752C22.9885 15.4533 23.3565 15.048 23.6338 14.536C23.9111 14.0133 24.0498 13.448 24.0498 12.84C24.0498 12.2213 23.9111 11.656 23.6338 11.144C23.3565 10.632 22.9885 10.2267 22.5298 9.928C22.0711 9.62933 21.5645 9.48 21.0098 9.48C20.4551 9.48 19.9485 9.63467 19.4898 9.944C19.0418 10.2533 18.6791 10.664 18.4018 11.176C18.1245 11.6773 17.9858 12.2427 17.9858 12.872ZM30.5894 17.16C29.9814 17.16 29.4214 17.048 28.9094 16.824C28.4081 16.5893 27.9654 16.2693 27.5814 15.864C27.2081 15.4587 26.9148 14.9947 26.7014 14.472C26.4988 13.9493 26.3974 13.3947 26.3974 12.808C26.3974 12.0187 26.5734 11.2987 26.9254 10.648C27.2774 9.99733 27.7681 9.48 28.3974 9.096C29.0268 8.712 29.7521 8.52 30.5734 8.52C31.3521 8.52 32.0401 8.70133 32.6374 9.064C33.2348 9.416 33.6774 9.896 33.9654 10.504L32.9094 10.84C32.6748 10.4133 32.3441 10.0827 31.9174 9.848C31.5014 9.60267 31.0374 9.48 30.5254 9.48C29.9708 9.48 29.4641 9.624 29.0054 9.912C28.5468 10.2 28.1788 10.5947 27.9014 11.096C27.6348 11.5973 27.5014 12.168 27.5014 12.808C27.5014 13.4373 27.6401 14.008 27.9174 14.52C28.1948 15.032 28.5628 15.4427 29.0214 15.752C29.4801 16.0507 29.9868 16.2 30.5414 16.2C30.9041 16.2 31.2508 16.136 31.5814 16.008C31.9228 15.88 32.2161 15.7093 32.4614 15.496C32.7174 15.272 32.8881 15.032 32.9734 14.776L34.0454 15.096C33.8961 15.4907 33.6454 15.848 33.2934 16.168C32.9521 16.4773 32.5468 16.7227 32.0774 16.904C31.6188 17.0747 31.1228 17.16 30.5894 17.16ZM42.7627 17H41.6747V12.344C41.6747 11.4053 41.5094 10.7013 41.1787 10.232C40.848 9.752 40.3734 9.512 39.7547 9.512C39.3494 9.512 38.944 9.61867 38.5387 9.832C38.144 10.0347 37.792 10.3173 37.4827 10.68C37.184 11.032 36.9707 11.4373 36.8427 11.896V17H35.7547V5.32H36.8427V10.552C37.1734 9.93333 37.632 9.44267 38.2187 9.08C38.816 8.70667 39.4507 8.52 40.1227 8.52C40.6027 8.52 41.008 8.60533 41.3387 8.776C41.68 8.94667 41.952 9.19733 42.1547 9.528C42.368 9.848 42.5227 10.2267 42.6187 10.664C42.7147 11.0907 42.7627 11.576 42.7627 12.12V17ZM48.6828 17.16C48.0855 17.16 47.5308 17.048 47.0188 16.824C46.5068 16.5893 46.0641 16.2747 45.6908 15.88C45.3175 15.4747 45.0241 15.0107 44.8108 14.488C44.6081 13.9653 44.5068 13.4053 44.5068 12.808C44.5068 12.0293 44.6828 11.3147 45.0348 10.664C45.3975 10.0133 45.8935 9.496 46.5228 9.112C47.1521 8.71733 47.8668 8.52 48.6668 8.52C49.4881 8.52 50.2028 8.71733 50.8108 9.112C51.4295 9.50667 51.9148 10.0293 52.2668 10.68C52.6188 11.32 52.7948 12.024 52.7948 12.792C52.7948 12.8773 52.7948 12.9627 52.7948 13.048C52.7948 13.1227 52.7895 13.1813 52.7788 13.224H45.6428C45.6961 13.8213 45.8615 14.3547 46.1388 14.824C46.4268 15.2827 46.7948 15.6507 47.2428 15.928C47.7015 16.1947 48.1975 16.328 48.7308 16.328C49.2748 16.328 49.7868 16.1893 50.2668 15.912C50.7575 15.6347 51.0988 15.272 51.2908 14.824L52.2348 15.08C52.0641 15.4747 51.8028 15.832 51.4508 16.152C51.0988 16.472 50.6828 16.7227 50.2028 16.904C49.7335 17.0747 49.2268 17.16 48.6828 17.16ZM45.6108 12.44H51.7708C51.7281 11.832 51.5628 11.2987 51.2748 10.84C50.9975 10.3813 50.6295 10.024 50.1708 9.768C49.7228 9.50133 49.2268 9.368 48.6828 9.368C48.1388 9.368 47.6428 9.50133 47.1948 9.768C46.7468 10.024 46.3788 10.3867 46.0908 10.856C45.8135 11.3147 45.6535 11.8427 45.6108 12.44ZM62.1516 17.16C61.5542 17.16 60.9996 17.048 60.4876 16.824C59.9756 16.5893 59.5329 16.2747 59.1596 15.88C58.7862 15.4747 58.4929 15.0107 58.2796 14.488C58.0769 13.9653 57.9756 13.4053 57.9756 12.808C57.9756 12.0293 58.1516 11.3147 58.5036 10.664C58.8662 10.0133 59.3622 9.496 59.9916 9.112C60.6209 8.71733 61.3356 8.52 62.1356 8.52C62.9569 8.52 63.6716 8.71733 64.2796 9.112C64.8982 9.50667 65.3836 10.0293 65.7356 10.68C66.0876 11.32 66.2636 12.024 66.2636 12.792C66.2636 12.8773 66.2636 12.9627 66.2636 13.048C66.2636 13.1227 66.2582 13.1813 66.2476 13.224H59.1116C59.1649 13.8213 59.3302 14.3547 59.6076 14.824C59.8956 15.2827 60.2636 15.6507 60.7116 15.928C61.1702 16.1947 61.6662 16.328 62.1996 16.328C62.7436 16.328 63.2556 16.1893 63.7356 15.912C64.2262 15.6347 64.5676 15.272 64.7596 14.824L65.7036 15.08C65.5329 15.4747 65.2716 15.832 64.9196 16.152C64.5676 16.472 64.1516 16.7227 63.6716 16.904C63.2022 17.0747 62.6956 17.16 62.1516 17.16ZM59.0796 12.44H65.2396C65.1969 11.832 65.0316 11.2987 64.7436 10.84C64.4662 10.3813 64.0982 10.024 63.6396 9.768C63.1916 9.50133 62.6956 9.368 62.1516 9.368C61.6076 9.368 61.1116 9.50133 60.6636 9.768C60.2156 10.024 59.8476 10.3867 59.5596 10.856C59.2822 11.3147 59.1222 11.8427 59.0796 12.44ZM67.8857 8.664L70.3337 11.928L70.4617 12.168L70.5897 11.928L73.0217 8.664H74.2537L71.0857 12.856L74.2537 17H73.0217L70.5897 13.752L70.4617 13.528L70.3337 13.752L67.9017 17H66.6697L69.8217 12.856L66.6697 8.664H67.8857ZM78.9332 17.16C78.3252 17.16 77.7652 17.048 77.2532 16.824C76.7519 16.5893 76.3092 16.2693 75.9252 15.864C75.5519 15.4587 75.2585 14.9947 75.0452 14.472C74.8425 13.9493 74.7412 13.3947 74.7412 12.808C74.7412 12.0187 74.9172 11.2987 75.2692 10.648C75.6212 9.99733 76.1119 9.48 76.7412 9.096C77.3705 8.712 78.0959 8.52 78.9172 8.52C79.6959 8.52 80.3839 8.70133 80.9812 9.064C81.5785 9.416 82.0212 9.896 82.3092 10.504L81.2532 10.84C81.0185 10.4133 80.6879 10.0827 80.2612 9.848C79.8452 9.60267 79.3812 9.48 78.8692 9.48C78.3145 9.48 77.8079 9.624 77.3492 9.912C76.8905 10.2 76.5225 10.5947 76.2452 11.096C75.9785 11.5973 75.8452 12.168 75.8452 12.808C75.8452 13.4373 75.9839 14.008 76.2612 14.52C76.5385 15.032 76.9065 15.4427 77.3652 15.752C77.8239 16.0507 78.3305 16.2 78.8852 16.2C79.2479 16.2 79.5945 16.136 79.9252 16.008C80.2665 15.88 80.5599 15.7093 80.8052 15.496C81.0612 15.272 81.2319 15.032 81.3172 14.776L82.3892 15.096C82.2399 15.4907 81.9892 15.848 81.6372 16.168C81.2959 16.4773 80.8905 16.7227 80.4212 16.904C79.9625 17.0747 79.4665 17.16 78.9332 17.16ZM84.1464 5.32H85.2344V15.112C85.2344 15.528 85.3091 15.8 85.4584 15.928C85.6078 16.056 85.7891 16.12 86.0024 16.12C86.1944 16.12 86.3864 16.0987 86.5784 16.056C86.7704 16.0133 86.9358 15.9707 87.0744 15.928L87.2664 16.808C87.0638 16.8933 86.8131 16.9627 86.5144 17.016C86.2264 17.0693 85.9758 17.096 85.7624 17.096C85.2718 17.096 84.8771 16.952 84.5784 16.664C84.2904 16.376 84.1464 15.9813 84.1464 15.48V5.32ZM88.3778 13.56V8.664H89.4658V13.368C89.4658 14.3173 89.6258 15.0267 89.9458 15.496C90.2765 15.9653 90.7618 16.2 91.4018 16.2C91.8285 16.2 92.2391 16.1093 92.6338 15.928C93.0391 15.736 93.3965 15.4693 93.7058 15.128C94.0151 14.776 94.2498 14.3707 94.4098 13.912V8.664H95.4978V15.688C95.4978 15.8373 95.5298 15.9493 95.5938 16.024C95.6578 16.088 95.7538 16.1253 95.8818 16.136V17C95.7538 17.0107 95.6525 17.016 95.5778 17.016C95.5031 17.0267 95.4338 17.032 95.3698 17.032C95.1565 17.0107 94.9698 16.9253 94.8098 16.776C94.6605 16.6267 94.5805 16.4453 94.5698 16.232L94.5378 15.112C94.1751 15.752 93.6791 16.2533 93.0498 16.616C92.4311 16.9787 91.7591 17.16 91.0338 17.16C90.1591 17.16 89.4978 16.856 89.0498 16.248C88.6018 15.64 88.3778 14.744 88.3778 13.56ZM100.694 17.16C100.011 17.16 99.3765 17.048 98.7898 16.824C98.2031 16.6 97.6965 16.2587 97.2698 15.8L97.7178 15.032C98.1871 15.4693 98.6565 15.7893 99.1258 15.992C99.6058 16.184 100.112 16.28 100.646 16.28C101.296 16.28 101.824 16.152 102.23 15.896C102.635 15.6293 102.838 15.2507 102.838 14.76C102.838 14.4293 102.736 14.1787 102.534 14.008C102.342 13.8267 102.059 13.6827 101.686 13.576C101.323 13.4587 100.886 13.336 100.374 13.208C99.7978 13.048 99.3125 12.8827 98.9178 12.712C98.5338 12.5307 98.2405 12.3067 98.0378 12.04C97.8458 11.7627 97.7498 11.4053 97.7498 10.968C97.7498 10.424 97.8831 9.976 98.1498 9.624C98.4271 9.26133 98.8005 8.98933 99.2698 8.808C99.7498 8.616 100.283 8.52 100.87 8.52C101.51 8.52 102.075 8.62133 102.566 8.824C103.056 9.02667 103.456 9.30933 103.766 9.672L103.238 10.408C102.939 10.0667 102.582 9.816 102.166 9.656C101.76 9.48533 101.307 9.4 100.806 9.4C100.464 9.4 100.139 9.448 99.8298 9.544C99.5205 9.62933 99.2645 9.77867 99.0618 9.992C98.8698 10.1947 98.7738 10.4773 98.7738 10.84C98.7738 11.1387 98.8485 11.3733 98.9978 11.544C99.1471 11.704 99.3711 11.8427 99.6698 11.96C99.9685 12.0667 100.336 12.184 100.774 12.312C101.403 12.4827 101.952 12.6587 102.422 12.84C102.891 13.0107 103.254 13.2347 103.51 13.512C103.766 13.7893 103.894 14.1787 103.894 14.68C103.894 15.4587 103.6 16.0667 103.014 16.504C102.427 16.9413 101.654 17.16 100.694 17.16ZM105.692 17V8.664H106.78V17H105.692ZM105.692 6.92V5.32H106.78V6.92H105.692ZM111.657 17L108.281 8.664H109.417L112.265 15.912L115.129 8.664H116.201L112.825 17H111.657ZM120.979 17.16C120.381 17.16 119.827 17.048 119.315 16.824C118.813 16.5893 118.376 16.2747 118.003 15.88C117.64 15.4747 117.357 15.016 117.155 14.504C116.952 13.9813 116.851 13.432 116.851 12.856C116.851 12.2587 116.952 11.704 117.155 11.192C117.357 10.6693 117.645 10.2107 118.019 9.816C118.392 9.41067 118.829 9.096 119.331 8.872C119.843 8.63733 120.397 8.52 120.995 8.52C121.592 8.52 122.141 8.63733 122.643 8.872C123.144 9.096 123.581 9.41067 123.955 9.816C124.328 10.2107 124.616 10.6693 124.819 11.192C125.021 11.704 125.123 12.2587 125.123 12.856C125.123 13.432 125.021 13.9813 124.819 14.504C124.616 15.016 124.328 15.4747 123.955 15.88C123.592 16.2747 123.155 16.5893 122.643 16.824C122.141 17.048 121.587 17.16 120.979 17.16ZM117.955 12.872C117.955 13.4907 118.088 14.056 118.355 14.568C118.632 15.0693 119 15.4693 119.459 15.768C119.917 16.056 120.424 16.2 120.979 16.2C121.533 16.2 122.04 16.0507 122.499 15.752C122.957 15.4533 123.325 15.048 123.603 14.536C123.88 14.0133 124.019 13.448 124.019 12.84C124.019 12.2213 123.88 11.656 123.603 11.144C123.325 10.632 122.957 10.2267 122.499 9.928C122.04 9.62933 121.533 9.48 120.979 9.48C120.424 9.48 119.917 9.63467 119.459 9.944C119.011 10.2533 118.648 10.664 118.371 11.176C118.093 11.6773 117.955 12.2427 117.955 12.872Z" fill="#E2E7E9"/>
<path d="M120.537 172.269C120.685 172.801 121.237 173.112 121.769 172.963C122.301 172.815 122.612 172.263 122.463 171.731L120.537 172.269ZM16.9997 125L16.0186 125.193L16.9997 125ZM66.2047 44.0212C65.6641 43.9081 65.1341 44.2546 65.021 44.7951L63.1772 53.6043C63.0641 54.1448 63.4106 54.6748 63.9512 54.7879C64.4917 54.901 65.0217 54.5546 65.1348 54.014L66.7737 46.1837L74.604 47.8226C75.1446 47.9357 75.6745 47.5892 75.7877 47.0486C75.9008 46.5081 75.5543 45.9781 75.0138 45.865L66.2047 44.0212ZM122.463 171.731C119.385 160.701 110.741 150.01 99.7694 140.759C88.778 131.492 75.3461 123.582 62.5152 118.142C49.7139 112.714 37.3823 109.689 28.6151 110.323C24.2321 110.64 20.5758 111.884 18.2553 114.383C15.8971 116.922 15.1032 120.551 16.0186 125.193L17.9809 124.807C17.1463 120.574 17.9305 117.672 19.7208 115.744C21.5487 113.776 24.6111 112.618 28.7594 112.318C37.0547 111.718 49.0356 114.599 61.7344 119.983C74.4034 125.355 87.6591 133.164 98.4802 142.288C109.321 151.428 117.615 161.799 120.537 172.269L122.463 171.731ZM16.0186 125.193C16.7216 128.758 18.7214 131.064 21.6361 132.103C24.4721 133.114 28.0407 132.88 31.8844 131.742C39.5895 129.46 48.8862 123.402 56.8988 114.939C72.9199 98.0173 84.1964 71.0028 66.8368 44.4528L65.1628 45.5472C81.8031 70.9972 71.1434 96.9846 55.4464 113.564C47.5999 121.851 38.5921 127.669 31.3164 129.824C27.6698 130.904 24.579 131.029 22.3077 130.219C20.1151 129.438 18.5598 127.743 17.9809 124.807L16.0186 125.193Z" fill="#7D298A"/>
</svg>
