<svg width="256" height="77" viewBox="0 0 256 77" fill="none" xmlns="http://www.w3.org/2000/svg">
<path d="M1.7365 17V5.64H2.8565V16.008H9.4165V17H1.7365ZM10.8406 17V8.664H11.9286V17H10.8406ZM10.8406 6.92V5.32H11.9286V6.92H10.8406ZM16.805 17L13.429 8.664H14.565L17.413 15.912L20.277 8.664H21.349L17.973 17H16.805ZM27.0163 9.624C26.2909 9.64533 25.6509 9.848 25.0963 10.232C24.5523 10.616 24.1683 11.144 23.9443 11.816V17H22.8563V8.664H23.8803V10.664C24.1683 10.0773 24.5469 9.60267 25.0163 9.24C25.4963 8.87733 26.0029 8.67467 26.5363 8.632C26.6429 8.62133 26.7336 8.616 26.8083 8.616C26.8936 8.616 26.9629 8.62133 27.0163 8.632V9.624ZM31.752 17.16C31.1547 17.16 30.6 17.048 30.088 16.824C29.5867 16.5893 29.1493 16.2747 28.776 15.88C28.4133 15.4747 28.1307 15.016 27.928 14.504C27.7253 13.9813 27.624 13.432 27.624 12.856C27.624 12.2587 27.7253 11.704 27.928 11.192C28.1307 10.6693 28.4187 10.2107 28.792 9.816C29.1653 9.41067 29.6027 9.096 30.104 8.872C30.616 8.63733 31.1707 8.52 31.768 8.52C32.3653 8.52 32.9147 8.63733 33.416 8.872C33.9173 9.096 34.3547 9.41067 34.728 9.816C35.1013 10.2107 35.3893 10.6693 35.592 11.192C35.7947 11.704 35.896 12.2587 35.896 12.856C35.896 13.432 35.7947 13.9813 35.592 14.504C35.3893 15.016 35.1013 15.4747 34.728 15.88C34.3653 16.2747 33.928 16.5893 33.416 16.824C32.9147 17.048 32.36 17.16 31.752 17.16ZM28.728 12.872C28.728 13.4907 28.8613 14.056 29.128 14.568C29.4053 15.0693 29.7733 15.4693 30.232 15.768C30.6907 16.056 31.1973 16.2 31.752 16.2C32.3067 16.2 32.8133 16.0507 33.272 15.752C33.7307 15.4533 34.0987 15.048 34.376 14.536C34.6533 14.0133 34.792 13.448 34.792 12.84C34.792 12.2213 34.6533 11.656 34.376 11.144C34.0987 10.632 33.7307 10.2267 33.272 9.928C32.8133 9.62933 32.3067 9.48 31.752 9.48C31.1973 9.48 30.6907 9.63467 30.232 9.944C29.784 10.2533 29.4213 10.664 29.144 11.176C28.8667 11.6773 28.728 12.2427 28.728 12.872ZM45.3938 17.16C44.7964 17.16 44.2418 17.048 43.7298 16.824C43.2178 16.5893 42.7751 16.2747 42.4018 15.88C42.0284 15.4747 41.7351 15.0107 41.5218 14.488C41.3191 13.9653 41.2178 13.4053 41.2178 12.808C41.2178 12.0293 41.3938 11.3147 41.7458 10.664C42.1084 10.0133 42.6044 9.496 43.2338 9.112C43.8631 8.71733 44.5778 8.52 45.3778 8.52C46.1991 8.52 46.9138 8.71733 47.5218 9.112C48.1404 9.50667 48.6258 10.0293 48.9778 10.68C49.3298 11.32 49.5058 12.024 49.5058 12.792C49.5058 12.8773 49.5058 12.9627 49.5058 13.048C49.5058 13.1227 49.5004 13.1813 49.4898 13.224H42.3538C42.4071 13.8213 42.5724 14.3547 42.8498 14.824C43.1378 15.2827 43.5058 15.6507 43.9538 15.928C44.4124 16.1947 44.9084 16.328 45.4418 16.328C45.9858 16.328 46.4978 16.1893 46.9778 15.912C47.4684 15.6347 47.8098 15.272 48.0018 14.824L48.9458 15.08C48.7751 15.4747 48.5138 15.832 48.1618 16.152C47.8098 16.472 47.3938 16.7227 46.9138 16.904C46.4444 17.0747 45.9378 17.16 45.3938 17.16ZM42.3218 12.44H48.4818C48.4391 11.832 48.2738 11.2987 47.9858 10.84C47.7084 10.3813 47.3404 10.024 46.8818 9.768C46.4338 9.50133 45.9378 9.368 45.3938 9.368C44.8498 9.368 44.3538 9.50133 43.9058 9.768C43.4578 10.024 43.0898 10.3867 42.8018 10.856C42.5244 11.3147 42.3644 11.8427 42.3218 12.44ZM63.5844 17H62.4964V12.344C62.4964 11.3733 62.3417 10.6587 62.0324 10.2C61.723 9.74133 61.2644 9.512 60.6564 9.512C60.027 9.512 59.4617 9.736 58.9604 10.184C58.4697 10.632 58.123 11.208 57.9204 11.912V17H56.8324V12.344C56.8324 11.3627 56.683 10.648 56.3844 10.2C56.0857 9.74133 55.627 9.512 55.0084 9.512C54.3897 9.512 53.8297 9.73067 53.3284 10.168C52.827 10.6053 52.475 11.1813 52.2724 11.896V17H51.1844V8.664H52.1764V10.552C52.5284 9.90133 52.9764 9.4 53.5204 9.048C54.075 8.696 54.6884 8.52 55.3604 8.52C56.0537 8.52 56.6137 8.71733 57.0404 9.112C57.467 9.50667 57.7284 10.024 57.8244 10.664C58.2084 9.96 58.667 9.42667 59.2004 9.064C59.7444 8.70133 60.3577 8.52 61.0404 8.52C61.5097 8.52 61.9044 8.60533 62.2244 8.776C62.555 8.94667 62.8164 9.192 63.0084 9.512C63.211 9.82133 63.355 10.2 63.4404 10.648C63.5364 11.0853 63.5844 11.576 63.5844 12.12V17ZM73.5816 17.16C72.9736 17.16 72.4136 17.048 71.9016 16.824C71.4003 16.5893 70.9576 16.2693 70.5736 15.864C70.2003 15.4587 69.907 14.9947 69.6936 14.472C69.491 13.9493 69.3896 13.3947 69.3896 12.808C69.3896 12.0187 69.5656 11.2987 69.9176 10.648C70.2696 9.99733 70.7603 9.48 71.3896 9.096C72.019 8.712 72.7443 8.52 73.5656 8.52C74.3443 8.52 75.0323 8.70133 75.6296 9.064C76.227 9.416 76.6696 9.896 76.9576 10.504L75.9016 10.84C75.667 10.4133 75.3363 10.0827 74.9096 9.848C74.4936 9.60267 74.0296 9.48 73.5176 9.48C72.963 9.48 72.4563 9.624 71.9976 9.912C71.539 10.2 71.171 10.5947 70.8936 11.096C70.627 11.5973 70.4936 12.168 70.4936 12.808C70.4936 13.4373 70.6323 14.008 70.9096 14.52C71.187 15.032 71.555 15.4427 72.0136 15.752C72.4723 16.0507 72.979 16.2 73.5336 16.2C73.8963 16.2 74.243 16.136 74.5736 16.008C74.915 15.88 75.2083 15.7093 75.4536 15.496C75.7096 15.272 75.8803 15.032 75.9656 14.776L77.0376 15.096C76.8883 15.4907 76.6376 15.848 76.2856 16.168C75.9443 16.4773 75.539 16.7227 75.0696 16.904C74.611 17.0747 74.115 17.16 73.5816 17.16ZM78.0749 14.6C78.0749 14.0773 78.2242 13.6293 78.5229 13.256C78.8215 12.872 79.2322 12.5787 79.7549 12.376C80.2882 12.1627 80.9015 12.056 81.5949 12.056C82.0002 12.056 82.4215 12.088 82.8589 12.152C83.2962 12.216 83.6855 12.312 84.0269 12.44V11.736C84.0269 11.032 83.8189 10.472 83.4029 10.056C82.9869 9.64 82.4109 9.432 81.6749 9.432C81.2269 9.432 80.7842 9.51733 80.3469 9.688C79.9202 9.848 79.4722 10.088 79.0029 10.408L78.5869 9.64C79.1309 9.26667 79.6642 8.98933 80.1869 8.808C80.7095 8.616 81.2429 8.52 81.7869 8.52C82.8109 8.52 83.6215 8.81333 84.2189 9.4C84.8162 9.98667 85.1149 10.7973 85.1149 11.832V15.688C85.1149 15.8373 85.1469 15.9493 85.2109 16.024C85.2749 16.088 85.3762 16.1253 85.5149 16.136V17C85.3975 17.0107 85.2962 17.0213 85.2109 17.032C85.1255 17.0427 85.0615 17.0427 85.0189 17.032C84.7522 17.0213 84.5495 16.936 84.4109 16.776C84.2722 16.616 84.1975 16.4453 84.1869 16.264L84.1709 15.656C83.7975 16.136 83.3122 16.5093 82.7149 16.776C82.1175 17.032 81.5095 17.16 80.8909 17.16C80.3575 17.16 79.8722 17.048 79.4349 16.824C79.0082 16.5893 78.6722 16.28 78.4269 15.896C78.1922 15.5013 78.0749 15.0693 78.0749 14.6ZM83.6589 15.24C83.7762 15.0907 83.8669 14.9467 83.9309 14.808C83.9949 14.6693 84.0269 14.5467 84.0269 14.44V13.224C83.6642 13.0853 83.2855 12.9787 82.8909 12.904C82.5069 12.8293 82.1175 12.792 81.7229 12.792C80.9442 12.792 80.3149 12.9467 79.8349 13.256C79.3549 13.5653 79.1149 13.9867 79.1149 14.52C79.1149 14.8293 79.1949 15.1227 79.3549 15.4C79.5149 15.6667 79.7495 15.8907 80.0589 16.072C80.3682 16.2427 80.7309 16.328 81.1469 16.328C81.6695 16.328 82.1549 16.2267 82.6029 16.024C83.0615 15.8213 83.4135 15.56 83.6589 15.24ZM91.7216 17.16C91.0283 17.16 90.4043 16.9787 89.8496 16.616C89.3056 16.2533 88.8736 15.8053 88.5536 15.272V20.408H87.4656V8.664H88.4416V10.28C88.7723 9.75733 89.215 9.336 89.7696 9.016C90.3243 8.68533 90.9163 8.52 91.5456 8.52C92.1216 8.52 92.6496 8.64267 93.1296 8.888C93.6096 9.12267 94.0256 9.44267 94.3776 9.848C94.7296 10.2533 95.0016 10.7173 95.1936 11.24C95.3963 11.752 95.4976 12.2853 95.4976 12.84C95.4976 13.6187 95.3376 14.3387 95.0176 15C94.7083 15.6507 94.271 16.1733 93.7056 16.568C93.1403 16.9627 92.479 17.16 91.7216 17.16ZM91.4176 16.2C91.8763 16.2 92.287 16.1093 92.6496 15.928C93.0123 15.736 93.3216 15.48 93.5776 15.16C93.8443 14.84 94.047 14.4827 94.1856 14.088C94.3243 13.6827 94.3936 13.2667 94.3936 12.84C94.3936 12.392 94.3136 11.9653 94.1536 11.56C94.0043 11.1547 93.7856 10.7973 93.4976 10.488C93.2096 10.1787 92.879 9.93333 92.5056 9.752C92.1323 9.57067 91.727 9.48 91.2896 9.48C91.0123 9.48 90.7243 9.53333 90.4256 9.64C90.127 9.74667 89.839 9.90133 89.5616 10.104C89.295 10.296 89.071 10.5147 88.8896 10.76C88.7083 11.0053 88.5963 11.2667 88.5536 11.544V14.104C88.7243 14.4987 88.9536 14.856 89.2416 15.176C89.5296 15.4853 89.8603 15.736 90.2336 15.928C90.6176 16.1093 91.0123 16.2 91.4176 16.2ZM96.6686 14.6C96.6686 14.0773 96.818 13.6293 97.1166 13.256C97.4153 12.872 97.826 12.5787 98.3486 12.376C98.882 12.1627 99.4953 12.056 100.189 12.056C100.594 12.056 101.015 12.088 101.453 12.152C101.89 12.216 102.279 12.312 102.621 12.44V11.736C102.621 11.032 102.413 10.472 101.997 10.056C101.581 9.64 101.005 9.432 100.269 9.432C99.8206 9.432 99.378 9.51733 98.9406 9.688C98.514 9.848 98.066 10.088 97.5966 10.408L97.1806 9.64C97.7246 9.26667 98.258 8.98933 98.7806 8.808C99.3033 8.616 99.8366 8.52 100.381 8.52C101.405 8.52 102.215 8.81333 102.813 9.4C103.41 9.98667 103.709 10.7973 103.709 11.832V15.688C103.709 15.8373 103.741 15.9493 103.805 16.024C103.869 16.088 103.97 16.1253 104.109 16.136V17C103.991 17.0107 103.89 17.0213 103.805 17.032C103.719 17.0427 103.655 17.0427 103.613 17.032C103.346 17.0213 103.143 16.936 103.005 16.776C102.866 16.616 102.791 16.4453 102.781 16.264L102.765 15.656C102.391 16.136 101.906 16.5093 101.309 16.776C100.711 17.032 100.103 17.16 99.4846 17.16C98.9513 17.16 98.466 17.048 98.0286 16.824C97.602 16.5893 97.266 16.28 97.0206 15.896C96.786 15.5013 96.6686 15.0693 96.6686 14.6ZM102.253 15.24C102.37 15.0907 102.461 14.9467 102.525 14.808C102.589 14.6693 102.621 14.5467 102.621 14.44V13.224C102.258 13.0853 101.879 12.9787 101.485 12.904C101.101 12.8293 100.711 12.792 100.317 12.792C99.538 12.792 98.9086 12.9467 98.4286 13.256C97.9486 13.5653 97.7086 13.9867 97.7086 14.52C97.7086 14.8293 97.7886 15.1227 97.9486 15.4C98.1086 15.6667 98.3433 15.8907 98.6526 16.072C98.962 16.2427 99.3246 16.328 99.7406 16.328C100.263 16.328 100.749 16.2267 101.197 16.024C101.655 15.8213 102.007 15.56 102.253 15.24ZM109.578 12.856C109.578 12.0667 109.738 11.3467 110.058 10.696C110.388 10.0347 110.842 9.50667 111.418 9.112C111.994 8.71733 112.65 8.52 113.386 8.52C114.079 8.52 114.698 8.70667 115.242 9.08C115.796 9.44267 116.228 9.88533 116.538 10.408V5.32H117.626V15.688C117.626 15.8373 117.658 15.9493 117.722 16.024C117.786 16.088 117.882 16.1253 118.01 16.136V17C117.796 17.032 117.631 17.0427 117.514 17.032C117.29 17.0213 117.092 16.9307 116.922 16.76C116.751 16.5893 116.666 16.4027 116.666 16.2V15.384C116.335 15.928 115.887 16.36 115.322 16.68C114.756 17 114.17 17.16 113.562 17.16C112.986 17.16 112.452 17.0427 111.962 16.808C111.482 16.5733 111.06 16.2533 110.698 15.848C110.346 15.4427 110.068 14.984 109.866 14.472C109.674 13.9493 109.578 13.4107 109.578 12.856ZM116.538 14.136V11.56C116.399 11.176 116.175 10.8293 115.866 10.52C115.556 10.2 115.204 9.94933 114.81 9.768C114.426 9.576 114.042 9.48 113.658 9.48C113.21 9.48 112.804 9.576 112.442 9.768C112.079 9.94933 111.764 10.2 111.498 10.52C111.242 10.84 111.044 11.2027 110.906 11.608C110.767 12.0133 110.698 12.4293 110.698 12.856C110.698 13.304 110.772 13.7307 110.922 14.136C111.082 14.5413 111.306 14.904 111.594 15.224C111.882 15.5333 112.212 15.7733 112.586 15.944C112.959 16.1147 113.364 16.2 113.802 16.2C114.079 16.2 114.367 16.1467 114.666 16.04C114.964 15.9333 115.247 15.7893 115.514 15.608C115.791 15.416 116.02 15.192 116.202 14.936C116.383 14.68 116.495 14.4133 116.538 14.136ZM120.011 13.56V8.664H121.099V13.368C121.099 14.3173 121.259 15.0267 121.579 15.496C121.909 15.9653 122.395 16.2 123.035 16.2C123.461 16.2 123.872 16.1093 124.267 15.928C124.672 15.736 125.029 15.4693 125.339 15.128C125.648 14.776 125.883 14.3707 126.043 13.912V8.664H127.131V15.688C127.131 15.8373 127.163 15.9493 127.227 16.024C127.291 16.088 127.387 16.1253 127.515 16.136V17C127.387 17.0107 127.285 17.016 127.211 17.016C127.136 17.0267 127.067 17.032 127.003 17.032C126.789 17.0107 126.603 16.9253 126.443 16.776C126.293 16.6267 126.213 16.4453 126.203 16.232L126.171 15.112C125.808 15.752 125.312 16.2533 124.683 16.616C124.064 16.9787 123.392 17.16 122.667 17.16C121.792 17.16 121.131 16.856 120.683 16.248C120.235 15.64 120.011 14.744 120.011 13.56ZM133.751 9.624C133.025 9.64533 132.385 9.848 131.831 10.232C131.287 10.616 130.903 11.144 130.679 11.816V17H129.591V8.664H130.615V10.664C130.903 10.0773 131.281 9.60267 131.751 9.24C132.231 8.87733 132.737 8.67467 133.271 8.632C133.377 8.62133 133.468 8.616 133.543 8.616C133.628 8.616 133.697 8.62133 133.751 8.632V9.624ZM134.497 14.6C134.497 14.0773 134.646 13.6293 134.945 13.256C135.243 12.872 135.654 12.5787 136.177 12.376C136.71 12.1627 137.323 12.056 138.017 12.056C138.422 12.056 138.843 12.088 139.281 12.152C139.718 12.216 140.107 12.312 140.449 12.44V11.736C140.449 11.032 140.241 10.472 139.825 10.056C139.409 9.64 138.833 9.432 138.097 9.432C137.649 9.432 137.206 9.51733 136.769 9.688C136.342 9.848 135.894 10.088 135.425 10.408L135.009 9.64C135.553 9.26667 136.086 8.98933 136.609 8.808C137.131 8.616 137.665 8.52 138.209 8.52C139.233 8.52 140.043 8.81333 140.641 9.4C141.238 9.98667 141.537 10.7973 141.537 11.832V15.688C141.537 15.8373 141.569 15.9493 141.633 16.024C141.697 16.088 141.798 16.1253 141.937 16.136V17C141.819 17.0107 141.718 17.0213 141.633 17.032C141.547 17.0427 141.483 17.0427 141.441 17.032C141.174 17.0213 140.971 16.936 140.833 16.776C140.694 16.616 140.619 16.4453 140.609 16.264L140.593 15.656C140.219 16.136 139.734 16.5093 139.137 16.776C138.539 17.032 137.931 17.16 137.313 17.16C136.779 17.16 136.294 17.048 135.857 16.824C135.43 16.5893 135.094 16.28 134.849 15.896C134.614 15.5013 134.497 15.0693 134.497 14.6ZM140.081 15.24C140.198 15.0907 140.289 14.9467 140.353 14.808C140.417 14.6693 140.449 14.5467 140.449 14.44V13.224C140.086 13.0853 139.707 12.9787 139.313 12.904C138.929 12.8293 138.539 12.792 138.145 12.792C137.366 12.792 136.737 12.9467 136.257 13.256C135.777 13.5653 135.537 13.9867 135.537 14.52C135.537 14.8293 135.617 15.1227 135.777 15.4C135.937 15.6667 136.171 15.8907 136.481 16.072C136.79 16.2427 137.153 16.328 137.569 16.328C138.091 16.328 138.577 16.2267 139.025 16.024C139.483 15.8213 139.835 15.56 140.081 15.24Z" fill="#E2E7E9"/>
<path d="M253.631 75.9944C253.904 76.4745 254.514 76.6423 254.994 76.3692C255.474 76.0962 255.642 75.4856 255.369 75.0056L253.631 75.9944ZM80.3162 44.5513C79.7923 44.3767 79.226 44.6598 79.0513 45.1838L76.2053 53.7219C76.0306 54.2459 76.3138 54.8122 76.8377 54.9868C77.3617 55.1615 77.928 54.8783 78.1026 54.3544L80.6325 46.7649L88.2219 49.2947C88.7459 49.4694 89.3122 49.1862 89.4868 48.6623C89.6615 48.1383 89.3783 47.572 88.8544 47.3974L80.3162 44.5513ZM255.369 75.0056C251.393 68.0154 246.188 63.458 240.046 60.726C233.923 58.0025 226.929 57.1187 219.397 57.3678C204.378 57.8645 186.904 62.8915 169.447 67.2169C151.902 71.5641 134.341 75.2151 118.857 73.1727C103.475 71.1437 90.114 63.4919 80.8944 45.0528L79.1056 45.9472C88.636 65.0081 102.587 73.0438 118.596 75.1555C134.503 77.2538 152.411 73.4985 169.928 69.1582C187.533 64.7962 204.716 59.8544 219.463 59.3667C226.813 59.1236 233.479 59.9937 239.233 62.5534C244.969 65.1046 249.857 69.3597 253.631 75.9944L255.369 75.0056Z" fill="#7D298A"/>
</svg>
