<svg width="236" height="192" viewBox="0 0 236 192" fill="none" xmlns="http://www.w3.org/2000/svg">
<path d="M11.7614 187V177.752L7.64944 184.936H6.94544L2.81744 177.752V187H1.69744V175.64H2.84944L7.28144 183.416L11.7454 175.64H12.8814V187H11.7614ZM14.7546 184.6C14.7546 184.077 14.9039 183.629 15.2026 183.256C15.5012 182.872 15.9119 182.579 16.4346 182.376C16.9679 182.163 17.5812 182.056 18.2746 182.056C18.6799 182.056 19.1012 182.088 19.5386 182.152C19.9759 182.216 20.3652 182.312 20.7066 182.44V181.736C20.7066 181.032 20.4986 180.472 20.0826 180.056C19.6666 179.64 19.0906 179.432 18.3546 179.432C17.9066 179.432 17.4639 179.517 17.0266 179.688C16.5999 179.848 16.1519 180.088 15.6826 180.408L15.2666 179.64C15.8106 179.267 16.3439 178.989 16.8666 178.808C17.3892 178.616 17.9226 178.52 18.4666 178.52C19.4906 178.52 20.3012 178.813 20.8986 179.4C21.4959 179.987 21.7946 180.797 21.7946 181.832V185.688C21.7946 185.837 21.8266 185.949 21.8906 186.024C21.9546 186.088 22.0559 186.125 22.1946 186.136V187C22.0772 187.011 21.9759 187.021 21.8906 187.032C21.8052 187.043 21.7412 187.043 21.6986 187.032C21.4319 187.021 21.2292 186.936 21.0906 186.776C20.9519 186.616 20.8772 186.445 20.8666 186.264L20.8506 185.656C20.4772 186.136 19.9919 186.509 19.3946 186.776C18.7972 187.032 18.1892 187.16 17.5706 187.16C17.0372 187.16 16.5519 187.048 16.1146 186.824C15.6879 186.589 15.3519 186.28 15.1066 185.896C14.8719 185.501 14.7546 185.069 14.7546 184.6ZM20.3386 185.24C20.4559 185.091 20.5466 184.947 20.6106 184.808C20.6746 184.669 20.7066 184.547 20.7066 184.44V183.224C20.3439 183.085 19.9652 182.979 19.5706 182.904C19.1866 182.829 18.7972 182.792 18.4026 182.792C17.6239 182.792 16.9946 182.947 16.5146 183.256C16.0346 183.565 15.7946 183.987 15.7946 184.52C15.7946 184.829 15.8746 185.123 16.0346 185.4C16.1946 185.667 16.4292 185.891 16.7386 186.072C17.0479 186.243 17.4106 186.328 17.8266 186.328C18.3492 186.328 18.8346 186.227 19.2826 186.024C19.7412 185.821 20.0932 185.56 20.3386 185.24ZM28.3053 179.624C27.58 179.645 26.94 179.848 26.3853 180.232C25.8413 180.616 25.4573 181.144 25.2333 181.816V187H24.1453V178.664H25.1693V180.664C25.4573 180.077 25.836 179.603 26.3053 179.24C26.7853 178.877 27.292 178.675 27.8253 178.632C27.932 178.621 28.0226 178.616 28.0973 178.616C28.1826 178.616 28.252 178.621 28.3053 178.632V179.624ZM33.1051 187.16C32.4971 187.16 31.9371 187.048 31.4251 186.824C30.9237 186.589 30.4811 186.269 30.0971 185.864C29.7237 185.459 29.4304 184.995 29.2171 184.472C29.0144 183.949 28.9131 183.395 28.9131 182.808C28.9131 182.019 29.0891 181.299 29.4411 180.648C29.7931 179.997 30.2837 179.48 30.9131 179.096C31.5424 178.712 32.2677 178.52 33.0891 178.52C33.8677 178.52 34.5557 178.701 35.1531 179.064C35.7504 179.416 36.1931 179.896 36.4811 180.504L35.4251 180.84C35.1904 180.413 34.8597 180.083 34.4331 179.848C34.0171 179.603 33.5531 179.48 33.0411 179.48C32.4864 179.48 31.9797 179.624 31.5211 179.912C31.0624 180.2 30.6944 180.595 30.4171 181.096C30.1504 181.597 30.0171 182.168 30.0171 182.808C30.0171 183.437 30.1557 184.008 30.4331 184.52C30.7104 185.032 31.0784 185.443 31.5371 185.752C31.9957 186.051 32.5024 186.2 33.0571 186.2C33.4197 186.2 33.7664 186.136 34.0971 186.008C34.4384 185.88 34.7317 185.709 34.9771 185.496C35.2331 185.272 35.4037 185.032 35.4891 184.776L36.5611 185.096C36.4117 185.491 36.1611 185.848 35.8091 186.168C35.4677 186.477 35.0624 186.723 34.5931 186.904C34.1344 187.075 33.6384 187.16 33.1051 187.16ZM37.5983 184.6C37.5983 184.077 37.7476 183.629 38.0463 183.256C38.345 182.872 38.7556 182.579 39.2783 182.376C39.8116 182.163 40.425 182.056 41.1183 182.056C41.5236 182.056 41.945 182.088 42.3823 182.152C42.8196 182.216 43.209 182.312 43.5503 182.44V181.736C43.5503 181.032 43.3423 180.472 42.9263 180.056C42.5103 179.64 41.9343 179.432 41.1983 179.432C40.7503 179.432 40.3076 179.517 39.8703 179.688C39.4436 179.848 38.9956 180.088 38.5263 180.408L38.1103 179.64C38.6543 179.267 39.1876 178.989 39.7103 178.808C40.233 178.616 40.7663 178.52 41.3103 178.52C42.3343 178.52 43.145 178.813 43.7423 179.4C44.3396 179.987 44.6383 180.797 44.6383 181.832V185.688C44.6383 185.837 44.6703 185.949 44.7343 186.024C44.7983 186.088 44.8996 186.125 45.0383 186.136V187C44.921 187.011 44.8196 187.021 44.7343 187.032C44.649 187.043 44.585 187.043 44.5423 187.032C44.2756 187.021 44.073 186.936 43.9343 186.776C43.7956 186.616 43.721 186.445 43.7103 186.264L43.6943 185.656C43.321 186.136 42.8356 186.509 42.2383 186.776C41.641 187.032 41.033 187.16 40.4143 187.16C39.881 187.16 39.3956 187.048 38.9583 186.824C38.5316 186.589 38.1956 186.28 37.9503 185.896C37.7156 185.501 37.5983 185.069 37.5983 184.6ZM43.1823 185.24C43.2996 185.091 43.3903 184.947 43.4543 184.808C43.5183 184.669 43.5503 184.547 43.5503 184.44V183.224C43.1876 183.085 42.809 182.979 42.4143 182.904C42.0303 182.829 41.641 182.792 41.2463 182.792C40.4676 182.792 39.8383 182.947 39.3583 183.256C38.8783 183.565 38.6383 183.987 38.6383 184.52C38.6383 184.829 38.7183 185.123 38.8783 185.4C39.0383 185.667 39.273 185.891 39.5823 186.072C39.8916 186.243 40.2543 186.328 40.6703 186.328C41.193 186.328 41.6783 186.227 42.1263 186.024C42.585 185.821 42.937 185.56 43.1823 185.24ZM55.3232 187.16C54.6299 187.16 54.0059 186.979 53.4512 186.616C52.9072 186.253 52.4752 185.805 52.1552 185.272V190.408H51.0672V178.664H52.0432V180.28C52.3739 179.757 52.8165 179.336 53.3712 179.016C53.9259 178.685 54.5179 178.52 55.1472 178.52C55.7232 178.52 56.2512 178.643 56.7312 178.888C57.2112 179.123 57.6272 179.443 57.9792 179.848C58.3312 180.253 58.6032 180.717 58.7952 181.24C58.9979 181.752 59.0992 182.285 59.0992 182.84C59.0992 183.619 58.9392 184.339 58.6192 185C58.3099 185.651 57.8725 186.173 57.3072 186.568C56.7419 186.963 56.0805 187.16 55.3232 187.16ZM55.0192 186.2C55.4779 186.2 55.8885 186.109 56.2512 185.928C56.6139 185.736 56.9232 185.48 57.1792 185.16C57.4459 184.84 57.6485 184.483 57.7872 184.088C57.9259 183.683 57.9952 183.267 57.9952 182.84C57.9952 182.392 57.9152 181.965 57.7552 181.56C57.6059 181.155 57.3872 180.797 57.0992 180.488C56.8112 180.179 56.4805 179.933 56.1072 179.752C55.7339 179.571 55.3285 179.48 54.8912 179.48C54.6139 179.48 54.3259 179.533 54.0272 179.64C53.7285 179.747 53.4405 179.901 53.1632 180.104C52.8965 180.296 52.6725 180.515 52.4912 180.76C52.3099 181.005 52.1979 181.267 52.1552 181.544V184.104C52.3259 184.499 52.5552 184.856 52.8432 185.176C53.1312 185.485 53.4619 185.736 53.8352 185.928C54.2192 186.109 54.6139 186.2 55.0192 186.2ZM60.2702 184.6C60.2702 184.077 60.4195 183.629 60.7182 183.256C61.0169 182.872 61.4275 182.579 61.9502 182.376C62.4835 182.163 63.0969 182.056 63.7902 182.056C64.1955 182.056 64.6169 182.088 65.0542 182.152C65.4915 182.216 65.8809 182.312 66.2222 182.44V181.736C66.2222 181.032 66.0142 180.472 65.5982 180.056C65.1822 179.64 64.6062 179.432 63.8702 179.432C63.4222 179.432 62.9795 179.517 62.5422 179.688C62.1155 179.848 61.6675 180.088 61.1982 180.408L60.7822 179.64C61.3262 179.267 61.8595 178.989 62.3822 178.808C62.9049 178.616 63.4382 178.52 63.9822 178.52C65.0062 178.52 65.8169 178.813 66.4142 179.4C67.0115 179.987 67.3102 180.797 67.3102 181.832V185.688C67.3102 185.837 67.3422 185.949 67.4062 186.024C67.4702 186.088 67.5715 186.125 67.7102 186.136V187C67.5929 187.011 67.4915 187.021 67.4062 187.032C67.3209 187.043 67.2569 187.043 67.2142 187.032C66.9475 187.021 66.7449 186.936 66.6062 186.776C66.4675 186.616 66.3929 186.445 66.3822 186.264L66.3662 185.656C65.9929 186.136 65.5075 186.509 64.9102 186.776C64.3129 187.032 63.7049 187.16 63.0862 187.16C62.5529 187.16 62.0675 187.048 61.6302 186.824C61.2035 186.589 60.8675 186.28 60.6222 185.896C60.3875 185.501 60.2702 185.069 60.2702 184.6ZM65.8542 185.24C65.9715 185.091 66.0622 184.947 66.1262 184.808C66.1902 184.669 66.2222 184.547 66.2222 184.44V183.224C65.8595 183.085 65.4809 182.979 65.0862 182.904C64.7022 182.829 64.3129 182.792 63.9182 182.792C63.1395 182.792 62.5102 182.947 62.0302 183.256C61.5502 183.565 61.3102 183.987 61.3102 184.52C61.3102 184.829 61.3902 185.123 61.5502 185.4C61.7102 185.667 61.9449 185.891 62.2542 186.072C62.5635 186.243 62.9262 186.328 63.3422 186.328C63.8649 186.328 64.3502 186.227 64.7982 186.024C65.2569 185.821 65.6089 185.56 65.8542 185.24ZM64.3342 177.08L63.6142 176.808L64.5582 175.32H65.7102L64.3342 177.08ZM73.0049 187.112C72.4396 187.112 71.9169 186.995 71.4369 186.76C70.9569 186.525 70.5409 186.211 70.1889 185.816C69.8476 185.411 69.5809 184.952 69.3889 184.44C69.1969 183.928 69.1009 183.4 69.1009 182.856C69.1009 182.269 69.1916 181.72 69.3729 181.208C69.5649 180.685 69.8316 180.221 70.1729 179.816C70.5249 179.411 70.9356 179.096 71.4049 178.872C71.8743 178.637 72.3969 178.52 72.9729 178.52C73.6876 178.52 74.3063 178.701 74.8289 179.064C75.3623 179.427 75.8103 179.875 76.1729 180.408V178.664H77.1489V187.032C77.1489 187.8 76.9623 188.445 76.5889 188.968C76.2263 189.501 75.7303 189.901 75.1009 190.168C74.4823 190.435 73.8049 190.568 73.0689 190.568C72.1196 190.568 71.3516 190.397 70.7649 190.056C70.1783 189.715 69.6983 189.256 69.3249 188.68L69.9969 188.152C70.3276 188.675 70.7649 189.064 71.3089 189.32C71.8636 189.576 72.4503 189.704 73.0689 189.704C73.6129 189.704 74.1089 189.603 74.5569 189.4C75.0156 189.208 75.3783 188.915 75.6449 188.52C75.9223 188.125 76.0609 187.629 76.0609 187.032V185.384C75.7409 185.907 75.3036 186.328 74.7489 186.648C74.1943 186.957 73.6129 187.112 73.0049 187.112ZM73.3089 186.2C73.6396 186.2 73.9543 186.141 74.2529 186.024C74.5623 185.907 74.8449 185.752 75.1009 185.56C75.3569 185.357 75.5703 185.133 75.7409 184.888C75.9116 184.643 76.0183 184.392 76.0609 184.136V181.56C75.9009 181.155 75.6716 180.797 75.3729 180.488C75.0743 180.168 74.7329 179.923 74.3489 179.752C73.9756 179.571 73.5863 179.48 73.1809 179.48C72.7116 179.48 72.2903 179.581 71.9169 179.784C71.5543 179.976 71.2449 180.237 70.9889 180.568C70.7436 180.888 70.5516 181.251 70.4129 181.656C70.2743 182.061 70.2049 182.467 70.2049 182.872C70.2049 183.32 70.2849 183.747 70.4449 184.152C70.6049 184.547 70.8236 184.904 71.1009 185.224C71.3889 185.533 71.7196 185.773 72.0929 185.944C72.4769 186.115 72.8823 186.2 73.3089 186.2ZM79.5516 187V178.664H80.6396V187H79.5516ZM79.5516 176.92V175.32H80.6396V176.92H79.5516ZM90.0439 187H88.9559V182.344C88.9559 181.363 88.8119 180.648 88.5239 180.2C88.2359 179.741 87.7826 179.512 87.1639 179.512C86.7373 179.512 86.3159 179.619 85.8999 179.832C85.4839 180.035 85.1159 180.317 84.7959 180.68C84.4866 181.032 84.2626 181.437 84.1239 181.896V187H83.0359V178.664H84.0279V180.552C84.2519 180.147 84.5453 179.795 84.9079 179.496C85.2706 179.187 85.6813 178.947 86.1399 178.776C86.5986 178.605 87.0733 178.52 87.5639 178.52C88.0226 178.52 88.4119 178.605 88.7319 178.776C89.0519 178.947 89.3079 179.192 89.4999 179.512C89.6919 179.821 89.8306 180.2 89.9159 180.648C90.0013 181.085 90.0439 181.576 90.0439 182.12V187ZM91.6921 184.6C91.6921 184.077 91.8414 183.629 92.1401 183.256C92.4387 182.872 92.8494 182.579 93.3721 182.376C93.9054 182.163 94.5187 182.056 95.2121 182.056C95.6174 182.056 96.0387 182.088 96.4761 182.152C96.9134 182.216 97.3027 182.312 97.6441 182.44V181.736C97.6441 181.032 97.4361 180.472 97.0201 180.056C96.6041 179.64 96.0281 179.432 95.2921 179.432C94.8441 179.432 94.4014 179.517 93.9641 179.688C93.5374 179.848 93.0894 180.088 92.6201 180.408L92.2041 179.64C92.7481 179.267 93.2814 178.989 93.8041 178.808C94.3267 178.616 94.8601 178.52 95.4041 178.52C96.4281 178.52 97.2387 178.813 97.8361 179.4C98.4334 179.987 98.7321 180.797 98.7321 181.832V185.688C98.7321 185.837 98.7641 185.949 98.8281 186.024C98.8921 186.088 98.9934 186.125 99.1321 186.136V187C99.0147 187.011 98.9134 187.021 98.8281 187.032C98.7427 187.043 98.6787 187.043 98.6361 187.032C98.3694 187.021 98.1667 186.936 98.0281 186.776C97.8894 186.616 97.8147 186.445 97.8041 186.264L97.7881 185.656C97.4147 186.136 96.9294 186.509 96.3321 186.776C95.7347 187.032 95.1267 187.16 94.5081 187.16C93.9747 187.16 93.4894 187.048 93.0521 186.824C92.6254 186.589 92.2894 186.28 92.0441 185.896C91.8094 185.501 91.6921 185.069 91.6921 184.6ZM97.2761 185.24C97.3934 185.091 97.4841 184.947 97.5481 184.808C97.6121 184.669 97.6441 184.547 97.6441 184.44V183.224C97.2814 183.085 96.9027 182.979 96.5081 182.904C96.1241 182.829 95.7347 182.792 95.3401 182.792C94.5614 182.792 93.9321 182.947 93.4521 183.256C92.9721 183.565 92.7321 183.987 92.7321 184.52C92.7321 184.829 92.8121 185.123 92.9721 185.4C93.1321 185.667 93.3667 185.891 93.6761 186.072C93.9854 186.243 94.3481 186.328 94.7641 186.328C95.2867 186.328 95.7721 186.227 96.2201 186.024C96.6787 185.821 97.0307 185.56 97.2761 185.24ZM103.819 187.16C103.136 187.16 102.501 187.048 101.915 186.824C101.328 186.6 100.821 186.259 100.395 185.8L100.843 185.032C101.312 185.469 101.781 185.789 102.251 185.992C102.731 186.184 103.237 186.28 103.771 186.28C104.421 186.28 104.949 186.152 105.355 185.896C105.76 185.629 105.963 185.251 105.963 184.76C105.963 184.429 105.861 184.179 105.659 184.008C105.467 183.827 105.184 183.683 104.811 183.576C104.448 183.459 104.011 183.336 103.499 183.208C102.923 183.048 102.437 182.883 102.043 182.712C101.659 182.531 101.365 182.307 101.163 182.04C100.971 181.763 100.875 181.405 100.875 180.968C100.875 180.424 101.008 179.976 101.275 179.624C101.552 179.261 101.925 178.989 102.395 178.808C102.875 178.616 103.408 178.52 103.995 178.52C104.635 178.52 105.2 178.621 105.691 178.824C106.181 179.027 106.581 179.309 106.891 179.672L106.363 180.408C106.064 180.067 105.707 179.816 105.291 179.656C104.885 179.485 104.432 179.4 103.931 179.4C103.589 179.4 103.264 179.448 102.955 179.544C102.645 179.629 102.389 179.779 102.187 179.992C101.995 180.195 101.899 180.477 101.899 180.84C101.899 181.139 101.973 181.373 102.123 181.544C102.272 181.704 102.496 181.843 102.795 181.96C103.093 182.067 103.461 182.184 103.899 182.312C104.528 182.483 105.077 182.659 105.547 182.84C106.016 183.011 106.379 183.235 106.635 183.512C106.891 183.789 107.019 184.179 107.019 184.68C107.019 185.459 106.725 186.067 106.139 186.504C105.552 186.941 104.779 187.16 103.819 187.16ZM116.895 186.6C116.81 186.632 116.677 186.691 116.495 186.776C116.314 186.861 116.095 186.936 115.839 187C115.583 187.064 115.306 187.096 115.007 187.096C114.698 187.096 114.405 187.037 114.127 186.92C113.861 186.803 113.647 186.627 113.487 186.392C113.327 186.147 113.247 185.848 113.247 185.496V179.528H112.095V178.664H113.247V175.848H114.335V178.664H116.255V179.528H114.335V185.192C114.357 185.491 114.463 185.715 114.655 185.864C114.858 186.013 115.087 186.088 115.343 186.088C115.642 186.088 115.914 186.04 116.159 185.944C116.405 185.837 116.554 185.763 116.607 185.72L116.895 186.6ZM121.714 187.16C121.117 187.16 120.562 187.048 120.05 186.824C119.538 186.589 119.095 186.275 118.722 185.88C118.349 185.475 118.055 185.011 117.842 184.488C117.639 183.965 117.538 183.405 117.538 182.808C117.538 182.029 117.714 181.315 118.066 180.664C118.429 180.013 118.925 179.496 119.554 179.112C120.183 178.717 120.898 178.52 121.698 178.52C122.519 178.52 123.234 178.717 123.842 179.112C124.461 179.507 124.946 180.029 125.298 180.68C125.65 181.32 125.826 182.024 125.826 182.792C125.826 182.877 125.826 182.963 125.826 183.048C125.826 183.123 125.821 183.181 125.81 183.224H118.674C118.727 183.821 118.893 184.355 119.17 184.824C119.458 185.283 119.826 185.651 120.274 185.928C120.733 186.195 121.229 186.328 121.762 186.328C122.306 186.328 122.818 186.189 123.298 185.912C123.789 185.635 124.13 185.272 124.322 184.824L125.266 185.08C125.095 185.475 124.834 185.832 124.482 186.152C124.13 186.472 123.714 186.723 123.234 186.904C122.765 187.075 122.258 187.16 121.714 187.16ZM118.642 182.44H124.802C124.759 181.832 124.594 181.299 124.306 180.84C124.029 180.381 123.661 180.024 123.202 179.768C122.754 179.501 122.258 179.368 121.714 179.368C121.17 179.368 120.674 179.501 120.226 179.768C119.778 180.024 119.41 180.387 119.122 180.856C118.845 181.315 118.685 181.843 118.642 182.44ZM139.905 187H138.817V182.344C138.817 181.373 138.662 180.659 138.353 180.2C138.043 179.741 137.585 179.512 136.977 179.512C136.347 179.512 135.782 179.736 135.281 180.184C134.79 180.632 134.443 181.208 134.241 181.912V187H133.153V182.344C133.153 181.363 133.003 180.648 132.705 180.2C132.406 179.741 131.947 179.512 131.329 179.512C130.71 179.512 130.15 179.731 129.649 180.168C129.147 180.605 128.795 181.181 128.593 181.896V187H127.505V178.664H128.497V180.552C128.849 179.901 129.297 179.4 129.841 179.048C130.395 178.696 131.009 178.52 131.681 178.52C132.374 178.52 132.934 178.717 133.361 179.112C133.787 179.507 134.049 180.024 134.145 180.664C134.529 179.96 134.987 179.427 135.521 179.064C136.065 178.701 136.678 178.52 137.361 178.52C137.83 178.52 138.225 178.605 138.545 178.776C138.875 178.947 139.137 179.192 139.329 179.512C139.531 179.821 139.675 180.2 139.761 180.648C139.857 181.085 139.905 181.576 139.905 182.12V187ZM141.536 184.6C141.536 184.077 141.685 183.629 141.984 183.256C142.282 182.872 142.693 182.579 143.216 182.376C143.749 182.163 144.362 182.056 145.056 182.056C145.461 182.056 145.882 182.088 146.32 182.152C146.757 182.216 147.146 182.312 147.488 182.44V181.736C147.488 181.032 147.28 180.472 146.864 180.056C146.448 179.64 145.872 179.432 145.136 179.432C144.688 179.432 144.245 179.517 143.808 179.688C143.381 179.848 142.933 180.088 142.464 180.408L142.048 179.64C142.592 179.267 143.125 178.989 143.648 178.808C144.17 178.616 144.704 178.52 145.248 178.52C146.272 178.52 147.082 178.813 147.68 179.4C148.277 179.987 148.576 180.797 148.576 181.832V185.688C148.576 185.837 148.608 185.949 148.672 186.024C148.736 186.088 148.837 186.125 148.976 186.136V187C148.858 187.011 148.757 187.021 148.672 187.032C148.586 187.043 148.522 187.043 148.48 187.032C148.213 187.021 148.01 186.936 147.872 186.776C147.733 186.616 147.658 186.445 147.648 186.264L147.632 185.656C147.258 186.136 146.773 186.509 146.176 186.776C145.578 187.032 144.97 187.16 144.352 187.16C143.818 187.16 143.333 187.048 142.896 186.824C142.469 186.589 142.133 186.28 141.888 185.896C141.653 185.501 141.536 185.069 141.536 184.6ZM147.12 185.24C147.237 185.091 147.328 184.947 147.392 184.808C147.456 184.669 147.488 184.547 147.488 184.44V183.224C147.125 183.085 146.746 182.979 146.352 182.904C145.968 182.829 145.578 182.792 145.184 182.792C144.405 182.792 143.776 182.947 143.296 183.256C142.816 183.565 142.576 183.987 142.576 184.52C142.576 184.829 142.656 185.123 142.816 185.4C142.976 185.667 143.21 185.891 143.52 186.072C143.829 186.243 144.192 186.328 144.608 186.328C145.13 186.328 145.616 186.227 146.064 186.024C146.522 185.821 146.874 185.56 147.12 185.24ZM145.6 177.08L144.88 176.808L145.824 175.32H146.976L145.6 177.08ZM154.864 186.6C154.779 186.632 154.645 186.691 154.464 186.776C154.283 186.861 154.064 186.936 153.808 187C153.552 187.064 153.275 187.096 152.976 187.096C152.667 187.096 152.373 187.037 152.096 186.92C151.829 186.803 151.616 186.627 151.456 186.392C151.296 186.147 151.216 185.848 151.216 185.496V179.528H150.064V178.664H151.216V175.848H152.304V178.664H154.224V179.528H152.304V185.192C152.325 185.491 152.432 185.715 152.624 185.864C152.827 186.013 153.056 186.088 153.312 186.088C153.611 186.088 153.883 186.04 154.128 185.944C154.373 185.837 154.523 185.763 154.576 185.72L154.864 186.6ZM156.223 187V178.664H157.311V187H156.223ZM156.223 176.92V175.32H157.311V176.92H156.223ZM163.324 187.16C162.716 187.16 162.156 187.048 161.644 186.824C161.142 186.589 160.7 186.269 160.316 185.864C159.942 185.459 159.649 184.995 159.436 184.472C159.233 183.949 159.132 183.395 159.132 182.808C159.132 182.019 159.308 181.299 159.66 180.648C160.012 179.997 160.502 179.48 161.132 179.096C161.761 178.712 162.486 178.52 163.308 178.52C164.086 178.52 164.774 178.701 165.372 179.064C165.969 179.416 166.412 179.896 166.7 180.504L165.644 180.84C165.409 180.413 165.078 180.083 164.652 179.848C164.236 179.603 163.772 179.48 163.26 179.48C162.705 179.48 162.198 179.624 161.74 179.912C161.281 180.2 160.913 180.595 160.636 181.096C160.369 181.597 160.236 182.168 160.236 182.808C160.236 183.437 160.374 184.008 160.652 184.52C160.929 185.032 161.297 185.443 161.756 185.752C162.214 186.051 162.721 186.2 163.276 186.2C163.638 186.2 163.985 186.136 164.316 186.008C164.657 185.88 164.95 185.709 165.196 185.496C165.452 185.272 165.622 185.032 165.708 184.776L166.78 185.096C166.63 185.491 166.38 185.848 166.028 186.168C165.686 186.477 165.281 186.723 164.812 186.904C164.353 187.075 163.857 187.16 163.324 187.16ZM171.963 187.16C171.366 187.16 170.811 187.048 170.299 186.824C169.798 186.589 169.36 186.275 168.987 185.88C168.624 185.475 168.342 185.016 168.139 184.504C167.936 183.981 167.835 183.432 167.835 182.856C167.835 182.259 167.936 181.704 168.139 181.192C168.342 180.669 168.63 180.211 169.003 179.816C169.376 179.411 169.814 179.096 170.315 178.872C170.827 178.637 171.382 178.52 171.979 178.52C172.576 178.52 173.126 178.637 173.627 178.872C174.128 179.096 174.566 179.411 174.939 179.816C175.312 180.211 175.6 180.669 175.803 181.192C176.006 181.704 176.107 182.259 176.107 182.856C176.107 183.432 176.006 183.981 175.803 184.504C175.6 185.016 175.312 185.475 174.939 185.88C174.576 186.275 174.139 186.589 173.627 186.824C173.126 187.048 172.571 187.16 171.963 187.16ZM168.939 182.872C168.939 183.491 169.072 184.056 169.339 184.568C169.616 185.069 169.984 185.469 170.443 185.768C170.902 186.056 171.408 186.2 171.963 186.2C172.518 186.2 173.024 186.051 173.483 185.752C173.942 185.453 174.31 185.048 174.587 184.536C174.864 184.013 175.003 183.448 175.003 182.84C175.003 182.221 174.864 181.656 174.587 181.144C174.31 180.632 173.942 180.227 173.483 179.928C173.024 179.629 172.518 179.48 171.963 179.48C171.408 179.48 170.902 179.635 170.443 179.944C169.995 180.253 169.632 180.664 169.355 181.176C169.078 181.677 168.939 182.243 168.939 182.872Z" fill="#E2E7E9"/>
<path d="M207.05 0.16496C206.589 -0.138901 205.969 -0.0113689 205.665 0.449811C205.361 0.910991 205.489 1.53118 205.95 1.83504L207.05 0.16496ZM88.8552 153.264C89.2773 153.62 89.9082 153.567 90.2644 153.145L96.0688 146.267C96.425 145.845 96.3716 145.214 95.9495 144.858C95.5274 144.501 94.8965 144.555 94.5403 144.977L89.3808 151.091L83.267 145.931C82.8449 145.575 82.214 145.629 81.8578 146.051C81.5016 146.473 81.555 147.104 81.9771 147.46L88.8552 153.264ZM205.95 1.83504C219.292 10.6258 227.213 18.0242 231.006 24.3871C232.893 27.5522 233.737 30.4257 233.75 33.0675C233.764 35.7032 232.951 38.1868 231.396 40.5802C228.255 45.4139 222.131 49.8152 213.928 54.1143C205.754 58.3985 195.669 62.5054 184.757 66.8201C162.989 75.4276 137.954 84.847 118.884 98.0529C99.784 111.28 86.4609 128.454 88.5037 152.584L90.4966 152.416C88.5393 129.296 101.216 112.72 120.023 99.6971C138.859 86.653 163.636 77.3224 185.493 68.6799C196.394 64.3696 206.574 60.2265 214.857 55.8857C223.111 51.5598 229.635 46.9611 233.073 41.6698C234.807 39.0007 235.766 36.1405 235.75 33.0575C235.735 29.9806 234.749 26.7603 232.724 23.3629C228.693 16.6008 220.458 8.99923 207.05 0.16496L205.95 1.83504Z" fill="#7D298A"/>
</svg>
