<svg width="336" height="54" viewBox="0 0 336 54" fill="none" xmlns="http://www.w3.org/2000/svg">
<path d="M5.84 27.84C4.29333 28.0533 3.01333 28.16 2 28.16C1.65333 28.16 1.48 28.0267 1.48 27.76C1.48 27.1467 1.89333 26.5067 2.72 25.84C3.57333 25.1467 4.94667 24.5467 6.84 24.04C7.69333 21 8.66667 18.2133 9.76 15.68C7.09333 15.8133 4.90667 16.6933 3.2 18.32C2.77333 18.7467 2.42667 19.08 2.16 19.32C1.89333 19.56 1.65333 19.68 1.44 19.68C1.25333 19.68 1.06667 19.52 0.88 19.2C0.693333 18.88 0.6 18.4533 0.6 17.92C0.626667 15.8667 2.01333 14.2 4.76 12.92C7.50667 11.64 10.8933 11.0133 14.92 11.04L26.92 11.24C27.64 11.24 28 11.52 28 12.08C28 12.24 27.8933 12.5333 27.68 12.96C27.4667 13.36 27.28 13.8 27.12 14.28C26.7733 15.24 26.0267 15.72 24.88 15.72H23.6L18.28 15.68H15.2C14.9867 17.2 14.3467 19.68 13.28 23.12L20.6 23.24C21.0267 23.24 21.24 23.4933 21.24 24C21.24 24.16 21.1733 24.44 21.04 24.84C20.9067 25.24 20.7867 25.6533 20.68 26.08C20.4667 26.96 20.0133 27.4 19.32 27.4L13.24 27.12H12.72C12.56 27.12 12.3733 27.1333 12.16 27.16C10.7733 32.2533 10.08 36.28 10.08 39.24C10.08 40.8133 8.54667 41.6 5.48 41.6C4.81333 41.6 4.41333 41.2667 4.28 40.6C4.17333 39.9067 4.12 39 4.12 37.88C4.12 35.48 4.69333 32.1333 5.84 27.84ZM31.7309 36.64C33.8109 36.64 35.8243 35.8133 37.7709 34.16C38.4909 33.5467 39.0776 32.9867 39.5309 32.48C39.9843 31.9467 40.3309 31.68 40.5709 31.68C40.9443 31.68 41.1309 32.0533 41.1309 32.8C41.1309 33.5467 40.9309 34.3867 40.5309 35.32C40.1309 36.2267 39.4643 37.12 38.5309 38C36.2376 40.16 33.0909 41.24 29.0909 41.24C25.9176 41.24 23.7576 40.0933 22.6109 37.8C22.2109 37 22.0109 35.8533 22.0109 34.36C22.0109 32.8667 22.3043 31.32 22.8909 29.72C23.4776 28.0933 24.2509 26.6933 25.2109 25.52C26.1976 24.3467 27.3309 23.44 28.6109 22.8C29.8909 22.1333 31.2509 21.8 32.6909 21.8C34.1576 21.8 35.2776 22.16 36.0509 22.88C36.8509 23.6 37.2509 24.5333 37.2509 25.68C37.2509 26.8267 36.9576 27.7733 36.3709 28.52C35.8109 29.24 35.0776 29.8533 34.1709 30.36C33.2643 30.84 32.2509 31.28 31.1309 31.68C30.0376 32.0533 28.9576 32.48 27.8909 32.96V33.96C27.9176 34.92 28.3176 35.6 29.0909 36C29.8643 36.4 30.7443 36.6133 31.7309 36.64ZM31.0509 25.36C29.6643 25.36 28.7043 26.9733 28.1709 30.2C28.7309 29.8267 29.2509 29.4933 29.7309 29.2C30.2376 28.9067 30.6776 28.6267 31.0509 28.36C31.8509 27.7733 32.2643 27.1067 32.2909 26.36C32.2909 25.6933 31.8776 25.36 31.0509 25.36ZM48.2497 21.64C50.0364 21.6133 51.3697 21.9467 52.2497 22.64C53.1297 23.3067 53.5697 24.28 53.5697 25.56C53.5697 26.8133 53.183 27.8933 52.4097 28.8C51.663 29.68 50.743 30.3067 49.6497 30.68C50.423 31.48 51.1164 32.2933 51.7297 33.12C52.3697 33.9467 52.6897 34.8133 52.6897 35.72C52.6897 37.5067 51.983 38.8933 50.5697 39.88C49.1564 40.84 47.183 41.32 44.6497 41.32C42.143 41.32 40.263 40.8267 39.0097 39.84C37.7564 38.8267 37.1297 37.6933 37.1297 36.44C37.1297 35.16 37.4364 34 38.0497 32.96C38.6897 31.92 39.3697 31.4 40.0897 31.4C40.5164 31.4 40.823 31.56 41.0097 31.88C41.1964 32.1733 41.543 33.0533 42.0497 34.52C42.2364 35.0533 42.543 35.56 42.9697 36.04C43.9564 37.1333 45.5164 37.68 47.6497 37.68C47.3297 36.6667 46.8097 35.8 46.0897 35.08C45.3964 34.3333 44.703 33.6133 44.0097 32.92C43.3164 32.2267 42.703 31.4933 42.1697 30.72C41.6364 29.92 41.3697 28.9867 41.3697 27.92C41.3697 26 42.0897 24.44 43.5297 23.24C44.8897 22.1733 46.463 21.64 48.2497 21.64ZM48.0897 29.04C49.1564 27.8933 49.6897 26.9733 49.6897 26.28C49.6897 25.96 49.5697 25.68 49.3297 25.44C49.1164 25.1733 48.7964 25.04 48.3697 25.04C47.943 25.04 47.5297 25.0933 47.1297 25.2C46.7564 25.3067 46.4497 25.3867 46.2097 25.44C46.2097 26.4533 46.8364 27.6533 48.0897 29.04ZM56.9444 38.84C56.651 38.12 56.4377 37.2933 56.3044 36.36C56.171 35.4 56.1044 34.0667 56.1044 32.36C56.1044 30.6533 56.4244 28.3467 57.0644 25.44H55.2644C54.9444 25.44 54.7844 25.3067 54.7844 25.04C54.7844 24.4 54.8377 23.88 54.9444 23.48C55.0777 23.0533 55.371 22.5733 55.8244 22.04H56.7844C57.1577 22.04 57.5577 22.0267 57.9844 22C59.2644 17.8933 60.571 15.84 61.9044 15.84C62.971 15.8667 63.7177 16.5467 64.1444 17.88C64.251 18.2533 64.371 18.6533 64.5044 19.08L62.8644 21.96C64.731 22.0133 65.9044 22.04 66.3844 22.04C66.891 22.04 67.1577 22.0933 67.1844 22.2C67.2377 22.28 67.2644 22.4133 67.2644 22.6C67.2644 23.08 67.1444 23.68 66.9044 24.4C66.691 25.12 66.4377 25.4667 66.1444 25.44L62.1444 25.24C61.5844 28.4933 61.3044 31.1867 61.3044 33.32C61.3044 35.4533 61.611 36.52 62.2244 36.52C62.731 36.52 63.651 36.1067 64.9844 35.28C66.3177 34.4267 67.2777 33.6133 67.8644 32.84C68.451 32.0667 68.931 31.68 69.3044 31.68C69.6777 31.68 69.8644 32.1333 69.8644 33.04C69.8644 33.9467 69.5444 34.88 68.9044 35.84C68.2644 36.7733 67.451 37.64 66.4644 38.44C65.5044 39.2133 64.4244 39.8533 63.2244 40.36C62.051 40.8667 61.0244 41.12 60.1444 41.12C59.2644 41.12 58.5844 40.92 58.1044 40.52C57.651 40.0933 57.2644 39.5333 56.9444 38.84ZM72.6797 41.12C70.013 41.12 68.6797 38.6267 68.6797 33.64C68.6797 30.92 69.013 28.4533 69.6797 26.24C70.7197 22.8267 71.893 21.12 73.1997 21.12C73.973 21.12 74.5864 21.64 75.0397 22.68C75.413 23.48 75.5864 24.2667 75.5597 25.04C75.5597 26.1067 75.2397 27.9867 74.5997 30.68C73.9864 33.0267 73.6797 34.48 73.6797 35.04C73.6797 35.6 73.813 35.9867 74.0797 36.2C74.373 36.4133 74.7064 36.52 75.0797 36.52C75.4797 36.52 75.973 36.2667 76.5597 35.76C77.1464 35.2533 77.733 34.7067 78.3197 34.12C78.9064 33.5067 79.4397 32.9467 79.9197 32.44C80.4264 31.9333 80.773 31.68 80.9597 31.68C81.333 31.68 81.5197 32.1333 81.5197 33.04C81.5197 34.9067 80.573 36.7333 78.6797 38.52C76.813 40.28 74.813 41.1467 72.6797 41.12ZM74.3197 17.88C73.5997 16.8133 73.2397 15.6667 73.2397 14.44C73.2397 13.2133 73.4264 12.2 73.7997 11.4C74.1997 10.5733 74.573 9.97333 74.9197 9.6C75.2664 9.2 75.6664 9 76.1197 9C76.8664 9 77.5464 9.56 78.1597 10.68C78.773 11.7733 79.0797 12.6933 79.0797 13.44C79.0797 14.8267 78.5864 15.92 77.5997 16.72C76.6397 17.4933 75.5464 17.88 74.3197 17.88ZM85.8403 23.4C85.8403 25.1867 85.5203 27.2133 84.8803 29.48C84.9336 30.3333 84.9603 31.16 84.9603 31.96C84.9603 32.76 85.0136 33.4533 85.1203 34.04C85.5203 35.1067 86.027 35.76 86.6403 36C87.1736 36 87.7603 35.5467 88.4003 34.64C89.0403 33.7067 89.6936 32.6 90.3603 31.32C90.0403 30.0933 89.8803 28.9333 89.8803 27.84C89.8803 25.92 90.1736 24.52 90.7603 23.64C91.4803 22.52 92.5736 21.96 94.0403 21.96C95.507 21.96 96.4803 22.52 96.9603 23.64C97.147 24.0667 97.2403 24.5467 97.2403 25.08C97.2403 26.04 97.0003 27.0267 96.5203 28.04C96.0403 29.0267 95.267 30.3333 94.2003 31.96C94.6803 33.3733 95.4003 34.08 96.3603 34.08C97.5336 34.0533 98.547 33.64 99.4003 32.84C99.7203 32.52 99.987 32.24 100.2 32C100.44 31.76 100.68 31.64 100.92 31.64C101.294 31.64 101.48 32.08 101.48 32.96C101.48 34.6133 101 35.8267 100.04 36.6C99.107 37.3467 97.9203 37.72 96.4803 37.72C94.587 37.72 93.0803 36.8933 91.9603 35.24C88.8403 39.2933 86.227 41.32 84.1203 41.32C83.2936 41.32 82.4803 40.1467 81.6803 37.8C80.8803 35.4533 80.267 32.28 79.8403 28.28C79.5203 25.7467 79.707 23.9333 80.4003 22.84C80.987 21.9867 82.1336 21.56 83.8403 21.56C84.4803 21.56 84.9736 21.76 85.3203 22.16C85.667 22.5333 85.8403 22.9467 85.8403 23.4ZM104.477 41.12C101.81 41.12 100.477 38.6267 100.477 33.64C100.477 30.92 100.81 28.4533 101.477 26.24C102.517 22.8267 103.69 21.12 104.997 21.12C105.77 21.12 106.383 21.64 106.837 22.68C107.21 23.48 107.383 24.2667 107.357 25.04C107.357 26.1067 107.037 27.9867 106.397 30.68C105.783 33.0267 105.477 34.48 105.477 35.04C105.477 35.6 105.61 35.9867 105.877 36.2C106.17 36.4133 106.503 36.52 106.877 36.52C107.277 36.52 107.77 36.2667 108.357 35.76C108.943 35.2533 109.53 34.7067 110.117 34.12C110.703 33.5067 111.237 32.9467 111.717 32.44C112.223 31.9333 112.57 31.68 112.757 31.68C113.13 31.68 113.317 32.1333 113.317 33.04C113.317 34.9067 112.37 36.7333 110.477 38.52C108.61 40.28 106.61 41.1467 104.477 41.12ZM106.117 17.88C105.397 16.8133 105.037 15.6667 105.037 14.44C105.037 13.2133 105.223 12.2 105.597 11.4C105.997 10.5733 106.37 9.97333 106.717 9.6C107.063 9.2 107.463 9 107.917 9C108.663 9 109.343 9.56 109.957 10.68C110.57 11.7733 110.877 12.6933 110.877 13.44C110.877 14.8267 110.383 15.92 109.397 16.72C108.437 17.4933 107.343 17.88 106.117 17.88ZM113.077 38.84C112.784 38.12 112.571 37.2933 112.437 36.36C112.304 35.4 112.237 34.0667 112.237 32.36C112.237 30.6533 112.557 28.3467 113.197 25.44H111.397C111.077 25.44 110.917 25.3067 110.917 25.04C110.917 24.4 110.971 23.88 111.077 23.48C111.211 23.0533 111.504 22.5733 111.957 22.04H112.917C113.291 22.04 113.691 22.0267 114.117 22C115.397 17.8933 116.704 15.84 118.037 15.84C119.104 15.8667 119.851 16.5467 120.277 17.88C120.384 18.2533 120.504 18.6533 120.637 19.08L118.997 21.96C120.864 22.0133 122.037 22.04 122.517 22.04C123.024 22.04 123.291 22.0933 123.317 22.2C123.371 22.28 123.397 22.4133 123.397 22.6C123.397 23.08 123.277 23.68 123.037 24.4C122.824 25.12 122.571 25.4667 122.277 25.44L118.277 25.24C117.717 28.4933 117.437 31.1867 117.437 33.32C117.437 35.4533 117.744 36.52 118.357 36.52C118.864 36.52 119.784 36.1067 121.117 35.28C122.451 34.4267 123.411 33.6133 123.997 32.84C124.584 32.0667 125.064 31.68 125.437 31.68C125.811 31.68 125.997 32.1333 125.997 33.04C125.997 33.9467 125.677 34.88 125.037 35.84C124.397 36.7733 123.584 37.64 122.597 38.44C121.637 39.2133 120.557 39.8533 119.357 40.36C118.184 40.8667 117.157 41.12 116.277 41.12C115.397 41.12 114.717 40.92 114.237 40.52C113.784 40.0933 113.397 39.5333 113.077 38.84ZM133.333 36.64C135.413 36.64 137.426 35.8133 139.373 34.16C140.093 33.5467 140.679 32.9867 141.133 32.48C141.586 31.9467 141.933 31.68 142.173 31.68C142.546 31.68 142.733 32.0533 142.733 32.8C142.733 33.5467 142.533 34.3867 142.133 35.32C141.733 36.2267 141.066 37.12 140.133 38C137.839 40.16 134.693 41.24 130.693 41.24C127.519 41.24 125.359 40.0933 124.213 37.8C123.813 37 123.613 35.8533 123.613 34.36C123.613 32.8667 123.906 31.32 124.493 29.72C125.079 28.0933 125.853 26.6933 126.813 25.52C127.799 24.3467 128.933 23.44 130.213 22.8C131.493 22.1333 132.853 21.8 134.293 21.8C135.759 21.8 136.879 22.16 137.653 22.88C138.453 23.6 138.853 24.5333 138.853 25.68C138.853 26.8267 138.559 27.7733 137.973 28.52C137.413 29.24 136.679 29.8533 135.773 30.36C134.866 30.84 133.853 31.28 132.733 31.68C131.639 32.0533 130.559 32.48 129.493 32.96V33.96C129.519 34.92 129.919 35.6 130.693 36C131.466 36.4 132.346 36.6133 133.333 36.64ZM132.653 25.36C131.266 25.36 130.306 26.9733 129.773 30.2C130.333 29.8267 130.853 29.4933 131.333 29.2C131.839 28.9067 132.279 28.6267 132.653 28.36C133.453 27.7733 133.866 27.1067 133.893 26.36C133.893 25.6933 133.479 25.36 132.653 25.36Z" fill="#FF598B"/>
</svg>
