<svg width="46" height="51" viewBox="0 0 46 51" fill="none" xmlns="http://www.w3.org/2000/svg">
<path d="M42.412 47.4279C42.4146 45.8712 42.0682 44.3337 41.3984 42.9284C40.7288 41.5233 39.7528 40.2862 38.5422 39.308C38.4318 39.2179 38.3402 39.1069 38.2727 38.9814C38.205 38.8556 38.1628 38.7176 38.1486 38.5755C37.7663 34.7001 35.9563 31.1053 33.0707 28.4903C30.1849 25.8751 26.4297 24.4266 22.5352 24.4266C18.6407 24.4266 14.8854 25.8751 11.9996 28.4903C9.11386 31.1055 7.30387 34.7005 6.92166 38.5761L6.92157 38.577C6.9079 38.7183 6.86629 38.8555 6.79916 38.9805C6.73226 39.1052 6.64133 39.2153 6.53164 39.3046C5.41459 40.2029 4.49425 41.3214 3.82785 42.5905C3.16129 43.8599 2.76303 45.2528 2.65785 46.6827C2.56975 47.8805 2.68887 49.0828 3.00827 50.237H0.81487C0.571973 49.1712 0.468295 48.0758 0.508403 46.9784C0.570257 45.286 0.972806 43.6235 1.69197 42.0902C2.41114 40.557 3.43215 39.1845 4.69394 38.0549L4.83184 37.9315L4.85612 37.748C5.11148 35.8181 5.68115 33.943 6.54251 32.1972L6.65295 31.9734L6.54042 31.7506C4.07987 26.8787 2.28383 21.6988 1.20033 16.3495C0.811071 14.3222 0.49003 11.9425 0.512163 9.668C0.534406 7.38212 0.903203 5.26212 1.84204 3.71041L1.84593 3.70398L1.84963 3.69743C2.26724 2.95786 2.87761 2.34541 3.61575 1.92528C4.35389 1.50516 5.19215 1.29309 6.04127 1.31167L6.04127 1.31179H6.05221C8.9919 1.31179 11.4961 3.86332 13.5932 7.92198C15.6673 11.9362 17.2333 17.2187 18.3787 22.248L18.4874 22.7255L18.967 22.6267C21.3194 22.1422 23.7457 22.1422 26.0981 22.6267L26.5777 22.7255L26.6864 22.248C27.8318 17.2187 29.3979 11.9362 31.472 7.92198C33.569 3.86332 36.0732 1.31179 39.0129 1.31179V1.3119L39.0234 1.31168C39.8733 1.2938 40.712 1.50694 41.4502 1.92835C42.1884 2.34976 42.7984 2.96365 43.2151 3.70454L43.2189 3.71134L43.2229 3.71802C44.1607 5.26992 44.5301 7.39016 44.553 9.676C44.5757 11.9505 44.2553 14.33 43.8649 16.357C42.7807 21.7037 40.9847 26.881 38.5247 31.7505L38.4121 31.9734L38.5227 32.1973C39.3832 33.9407 39.9529 35.8131 40.209 37.7404L40.2334 37.9239L40.3714 38.0473C41.691 39.2269 42.7459 40.6725 43.4669 42.2889C44.1879 43.9053 44.5586 45.6561 44.5546 47.426V47.4271C44.5546 48.3776 44.4471 49.32 44.2372 50.237H42.0257C42.2801 49.3275 42.4114 48.3828 42.412 47.4279ZM42.412 47.4279L41.912 47.4271L42.412 47.4274C42.412 47.4276 42.412 47.4278 42.412 47.4279ZM28.7386 22.9171L28.6439 23.336L29.0436 23.4928C31.0757 24.2903 32.944 25.4541 34.5557 26.9263C35.3004 27.6085 35.9866 28.3518 36.6072 29.1485L37.1105 29.7947L37.4552 29.0516C39.6486 24.323 41.2178 19.2726 41.9542 14.9247C42.3223 12.7511 42.4845 10.7407 42.4077 9.02668C42.3317 7.33156 42.0201 5.87537 41.3974 4.84063C41.1703 4.40834 40.8257 4.04879 40.4032 3.80346C39.9787 3.55695 39.493 3.43596 39.0025 3.45442C37.9758 3.45821 36.9916 4.02579 36.0809 4.94672C35.1618 5.87609 34.2627 7.21866 33.4016 8.89961C31.6777 12.2646 30.0596 17.0773 28.7386 22.9171ZM35.2312 26.1889L35.2307 26.1884C33.6346 24.7304 31.8002 23.5588 29.8085 22.724C31.1012 17.1171 32.6601 12.5402 34.2916 9.35556C35.1281 7.7227 35.9723 6.47868 36.7919 5.6499C37.6168 4.81579 38.3634 4.4544 39.0129 4.4544H39.0233L39.0337 4.45396C39.3373 4.44131 39.6383 4.51566 39.9011 4.66825C40.1639 4.82084 40.3776 5.04533 40.5171 5.3153L40.525 5.33051L40.5339 5.34515C41.0354 6.17154 41.3354 7.43725 41.4087 9.07144C41.4814 10.6946 41.3284 12.631 40.9682 14.7577C40.2854 18.7891 38.8655 23.4605 36.8806 27.9006C36.3671 27.2966 35.8162 26.7249 35.2312 26.1889ZM7.60997 29.0439L7.95586 29.789L8.4588 29.1395C9.07514 28.3436 9.75681 27.6005 10.4967 26.918C12.1084 25.446 13.9765 24.2824 16.0084 23.485L16.4078 23.3282L16.3135 22.9097C14.9991 17.0737 13.3842 12.2629 11.662 8.89875C10.8016 7.21824 9.90298 5.87588 8.98406 4.94662C8.07347 4.02578 7.08928 3.45821 6.06258 3.45442C5.57215 3.43596 5.08645 3.55695 4.66191 3.80346C4.2394 4.04879 3.89484 4.40834 3.66771 4.84063C3.04497 5.87536 2.73341 7.33155 2.65746 9.02656C2.58067 10.7404 2.74279 12.7506 3.11095 14.9238C3.84734 19.2706 5.41651 24.3191 7.60997 29.0439ZM9.82131 26.1806L9.81956 26.1822C9.23917 26.7175 8.69272 27.2881 8.18331 27.8907C6.19901 23.4549 4.77956 18.7864 4.0969 14.7567C3.73669 12.6305 3.58374 10.6943 3.65646 9.07132C3.72968 7.43725 4.02971 6.17154 4.53124 5.34515L4.54012 5.33051L4.54798 5.3153C4.6875 5.04534 4.90125 4.82085 5.16404 4.66825C5.42685 4.51566 5.72777 4.44131 6.03139 4.45396L6.0418 4.4544H6.05221C6.70175 4.4544 7.44833 4.8158 8.27301 5.64976C9.09242 6.47839 9.93614 7.72213 10.7718 9.35446C12.4017 12.538 13.9574 17.1129 15.2439 22.716C13.252 23.5508 11.4175 24.7225 9.82131 26.1806ZM41.412 47.4263V47.4268C41.4114 48.3852 41.2653 49.3322 40.983 50.237H4.0501C3.703 49.1124 3.56867 47.9319 3.65516 46.7561C3.75027 45.463 4.11042 44.2033 4.71321 43.0554C5.316 41.9074 6.14852 40.8958 7.15902 40.0834L7.16089 40.0818C7.37393 39.9089 7.55047 39.6953 7.68026 39.4535C7.81005 39.2117 7.89049 38.9465 7.91692 38.6734L7.41924 38.6252L7.91683 38.6743C8.27468 35.0456 9.96931 31.6798 12.6712 29.2313C15.373 26.7828 18.8889 25.4266 22.5352 25.4266C26.1814 25.4266 29.6973 26.7828 32.3992 29.2313C35.101 31.6798 36.7957 35.0456 37.1535 38.6743L37.1536 38.6749C37.1809 38.9481 37.2619 39.2133 37.392 39.4551C37.522 39.6969 37.6986 39.9106 37.9115 40.084L37.913 40.0852C39.0077 40.9697 39.8902 42.0882 40.4957 43.3586C41.1012 44.629 41.4143 46.019 41.412 47.4263ZM17.793 42.8746C18.1357 42.3617 18.3186 41.7587 18.3186 41.1419C18.3186 40.3147 17.9901 39.5214 17.4052 38.9365C16.8203 38.3517 16.027 38.0231 15.1998 38.0231C14.583 38.0231 13.98 38.206 13.4671 38.5487C12.9542 38.8914 12.5544 39.3785 12.3184 39.9484C12.0823 40.5183 12.0206 41.1454 12.1409 41.7504C12.2612 42.3554 12.5583 42.9111 12.9945 43.3473C13.4306 43.7834 13.9864 44.0805 14.5914 44.2008C15.1963 44.3211 15.8234 44.2594 16.3933 44.0233C16.9632 43.7873 17.4503 43.3875 17.793 42.8746ZM29.8653 38.0231C29.2485 38.0231 28.6455 38.206 28.1326 38.5487C27.6197 38.8914 27.2199 39.3785 26.9839 39.9484C26.7478 40.5183 26.6861 41.1454 26.8064 41.7504C26.9267 42.3554 27.2238 42.9111 27.66 43.3473C28.0961 43.7834 28.6519 44.0805 29.2569 44.2008C29.8618 44.3211 30.4889 44.2594 31.0588 44.0233C31.6287 43.7873 32.1158 43.3875 32.4585 42.8746C32.8012 42.3617 32.9841 41.7587 32.9841 41.1419C32.9841 40.3147 32.6556 39.5214 32.0707 38.9365C31.4858 38.3517 30.6925 38.0231 29.8653 38.0231Z" fill="#9547A5" stroke="#9547A5"/>
</svg>
